<svg width="640" height="320" viewBox="0 0 640 320" fill="none" xmlns="http://www.w3.org/2000/svg">
<g clip-path="url(#clip0_83_15758)">
<path d="M204.252 239.985C202.117 239.985 200.381 238.25 200.381 236.114V104.164C200.381 102.085 202.074 100.393 204.152 100.393H236.202C238.281 100.393 239.974 102.085 239.974 104.164V205.721C239.974 224.614 224.602 239.985 205.71 239.985H204.252Z" fill="url(#paint0_linear_83_15758)"/>
<path d="M143.538 219.985C141.402 219.985 139.667 218.25 139.667 216.114V114.707C139.667 95.7855 155.06 80.3926 173.981 80.3926H175.481C177.567 80.3926 179.26 82.0855 179.26 84.1712V216.114C179.26 218.25 177.524 219.985 175.388 219.985H143.538Z" fill="url(#paint1_linear_83_15758)"/>
<path d="M200.51 140.2H179.488V179.793H200.51V140.2Z" fill="url(#paint2_linear_83_15758)"/>
<path d="M200.202 179.8V100.357C200.202 56.5498 235.838 20.9141 279.645 20.9141C323.452 20.9141 359.088 56.5498 359.088 100.357C359.088 144.164 323.452 179.8 279.645 179.8H200.202ZM279.981 60.3712C258.01 60.3712 240.138 78.2426 240.138 100.214V140.057H279.981C301.952 140.057 319.824 122.185 319.824 100.214C319.824 78.2426 301.952 60.3712 279.981 60.3712Z" fill="url(#paint3_linear_83_15758)"/>
<path d="M100.002 140.357C56.0165 140.357 20.3594 176.014 20.3594 220C20.3594 263.985 56.0165 299.643 100.002 299.643C143.988 299.643 179.645 263.985 179.645 220V140.357H100.002ZM139.645 220C139.645 241.893 121.895 259.643 100.002 259.643C78.1094 259.643 60.3594 241.893 60.3594 220C60.3594 198.107 78.1094 180.357 100.002 180.357H139.645V220Z" fill="url(#paint4_linear_83_15758)"/>
<path d="M203.911 240.001C201.754 240.001 200 238.269 200 236.138L200.194 100.715H236.19L240 100.715V204.358C240 225.001 226.786 240.001 203.911 240.001Z" fill="url(#paint5_linear_83_15758)"/>
<path d="M139.698 219.982V116.203C138.605 95.3535 155.748 79.6392 175.512 80.389C177.598 80.389 179.676 82.1964 179.676 84.2821V219.982H139.698Z" fill="url(#paint6_linear_83_15758)"/>
<path d="M165.897 60.1775C177.042 60.1775 186.076 51.1432 186.076 39.9989C186.076 28.8546 177.042 19.8203 165.897 19.8203C154.753 19.8203 145.719 28.8546 145.719 39.9989C145.719 51.1432 154.753 60.1775 165.897 60.1775Z" fill="#2B9AD2" stroke="url(#paint7_linear_83_15758)" stroke-width="0.404929" stroke-miterlimit="10"/>
<path d="M214.268 299.477C225.301 299.477 234.246 290.532 234.246 279.498C234.246 268.464 225.301 259.52 214.268 259.52C203.234 259.52 194.289 268.464 194.289 279.498C194.289 290.532 203.234 299.477 214.268 299.477Z" fill="#4A4ED3"/>
<path d="M290.525 219.831H278.504C270.775 219.831 264.511 213.567 264.511 205.838V120.138C264.511 108.924 273.604 99.8312 284.818 99.8312H300.489C302.711 99.8312 304.511 101.631 304.511 103.853V205.838C304.518 213.567 298.254 219.831 290.525 219.831Z" fill="#FBFDFD"/>
<path d="M471.061 219.646H459.039C451.311 219.646 445.047 213.381 445.047 205.653V119.91C445.047 108.717 454.118 99.6455 465.311 99.6455H480.968C483.225 99.6455 485.047 101.474 485.047 103.724V205.653C485.054 213.381 478.789 219.646 471.061 219.646Z" fill="#FBFDFD"/>
<path d="M554.518 100.188C521.382 100.188 494.518 127.053 494.518 160.188C494.518 160.917 494.546 161.646 494.575 162.367C494.425 162.788 494.346 163.238 494.346 163.71V274.86C494.346 277.103 496.168 278.924 498.411 278.924C518.253 278.924 534.346 262.838 534.346 242.988V216.696C540.653 218.946 547.439 220.181 554.525 220.181C587.661 220.181 614.525 193.317 614.525 160.181C614.518 127.053 587.653 100.188 554.518 100.188ZM554.518 180.188C543.475 180.188 534.518 171.231 534.518 160.188C534.518 149.146 543.475 140.188 554.518 140.188C565.561 140.188 574.518 149.146 574.518 160.188C574.518 171.231 565.561 180.188 554.518 180.188Z" fill="#FBFDFD"/>
<path d="M435.054 155.817V44.4241C435.054 42.1812 433.232 40.3598 430.989 40.3598C411.146 40.3598 395.054 56.4455 395.054 76.2955V103.56C388.846 101.388 382.182 100.188 375.232 100.188C342.096 100.188 315.232 127.053 315.232 160.188C315.232 193.324 342.096 220.188 375.232 220.188C408.368 220.188 435.232 193.324 435.232 160.188C435.232 158.717 435.161 157.26 435.054 155.817ZM375.232 180.188C364.189 180.188 355.232 171.231 355.232 160.188C355.232 149.146 364.189 140.188 375.232 140.188C386.275 140.188 395.232 149.146 395.232 160.188C395.232 171.231 386.275 180.188 375.232 180.188Z" fill="#FBFDFD"/>
<path d="M284.468 80.0954C295.612 80.0954 304.646 71.0612 304.646 59.9169C304.646 48.7725 295.612 39.7383 284.468 39.7383C273.323 39.7383 264.289 48.7725 264.289 59.9169C264.289 71.0612 273.323 80.0954 284.468 80.0954Z" fill="#FBFDFD"/>
<path d="M464.954 80.8097C476.098 80.8097 485.132 71.7755 485.132 60.6311C485.132 49.4868 476.098 40.4526 464.954 40.4526C453.81 40.4526 444.775 49.4868 444.775 60.6311C444.775 71.7755 453.81 80.8097 464.954 80.8097Z" fill="#FBFDFD"/>
<path d="M267.831 239.1H277.817V242.15H267.831V257.4C267.831 259.029 267.952 260.35 268.195 261.364C268.438 262.379 268.781 263.164 269.238 263.721C269.688 264.279 270.238 264.643 270.888 264.829C271.531 265.014 272.245 265.107 273.024 265.107C274.345 265.107 275.417 264.936 276.224 264.579C277.031 264.229 277.66 263.907 278.117 263.607L278.895 266.6C278.445 266.936 277.652 267.314 276.524 267.736C275.395 268.157 274.167 268.371 272.838 268.371C271.288 268.371 269.988 268.143 268.938 267.679C267.888 267.214 267.045 266.514 266.417 265.571C265.788 264.629 265.345 263.457 265.081 262.05C264.824 260.643 264.695 258.986 264.695 257.057V230.664L267.845 230V239.1H267.831Z" fill="url(#paint8_linear_83_15758)"/>
<path d="M282.124 255.25C282.124 253.05 282.438 251.129 283.067 249.493C283.695 247.857 284.524 246.486 285.538 245.386C286.552 244.286 287.717 243.464 289.024 242.929C290.331 242.393 291.681 242.129 293.074 242.129C296.145 242.129 298.588 243.136 300.417 245.143C302.238 247.15 303.152 250.243 303.152 254.429C303.152 254.686 303.145 254.95 303.131 255.207C303.117 255.464 303.088 255.707 303.06 255.936H285.467C285.567 259.014 286.324 261.379 287.745 263.029C289.167 264.679 291.431 265.507 294.531 265.507C296.245 265.507 297.602 265.343 298.602 265.021C299.602 264.7 300.331 264.421 300.781 264.193L301.36 266.914C300.91 267.171 300.06 267.479 298.817 267.836C297.574 268.193 296.11 268.371 294.431 268.371C292.231 268.371 290.36 268.05 288.81 267.4C287.26 266.75 285.981 265.843 284.981 264.679C283.981 263.514 283.252 262.129 282.802 260.521C282.352 258.921 282.124 257.164 282.124 255.25ZM299.91 253.257C299.845 250.636 299.231 248.593 298.067 247.136C296.902 245.679 295.252 244.95 293.124 244.95C291.995 244.95 290.981 245.179 290.095 245.629C289.21 246.086 288.431 246.693 287.767 247.45C287.102 248.214 286.588 249.093 286.217 250.1C285.845 251.107 285.624 252.157 285.56 253.257H299.91Z" fill="url(#paint9_linear_83_15758)"/>
<path d="M320.552 268.371C318.617 268.371 316.902 268.064 315.417 267.45C313.931 266.836 312.695 265.95 311.71 264.8C310.724 263.65 309.974 262.271 309.46 260.671C308.945 259.064 308.681 257.293 308.681 255.35C308.681 253.371 308.945 251.579 309.481 249.957C310.017 248.336 310.781 246.943 311.781 245.779C312.781 244.614 313.995 243.714 315.417 243.079C316.838 242.45 318.438 242.129 320.217 242.129C321.574 242.129 322.838 242.243 324.024 242.471C325.202 242.7 326.117 242.993 326.76 243.343L325.938 246.064C325.288 245.743 324.567 245.479 323.76 245.286C322.952 245.093 321.867 244.993 320.51 244.993C317.731 244.993 315.624 245.893 314.188 247.693C312.752 249.493 312.031 252.043 312.031 255.35C312.031 256.843 312.195 258.207 312.517 259.457C312.838 260.707 313.367 261.771 314.088 262.664C314.817 263.557 315.752 264.25 316.895 264.757C318.038 265.257 319.438 265.507 321.088 265.507C322.445 265.507 323.581 265.357 324.502 265.043C325.424 264.736 326.095 264.471 326.517 264.243L327.195 266.964C326.617 267.286 325.702 267.607 324.46 267.914C323.21 268.221 321.91 268.371 320.552 268.371Z" fill="url(#paint10_linear_83_15758)"/>
<path d="M332.474 243.614C333.41 243.35 334.667 243.05 336.252 242.721C337.838 242.393 339.774 242.229 342.067 242.229C343.974 242.229 345.567 242.507 346.838 243.071C348.117 243.636 349.131 244.436 349.888 245.471C350.645 246.514 351.188 247.757 351.51 249.214C351.831 250.671 351.995 252.271 351.995 254.021V268.343H348.845V255.064C348.845 253.25 348.724 251.714 348.481 250.457C348.238 249.2 347.831 248.179 347.267 247.386C346.702 246.593 345.96 246.021 345.038 245.679C344.117 245.336 342.96 245.157 341.574 245.157C340.088 245.157 338.802 245.243 337.724 245.407C336.638 245.571 335.938 245.721 335.617 245.85V268.35H332.467V243.614H332.474Z" fill="url(#paint11_linear_83_15758)"/>
<path d="M381.417 255.3C381.417 257.279 381.131 259.071 380.567 260.693C380.002 262.314 379.21 263.693 378.195 264.821C377.181 265.957 375.974 266.836 374.588 267.471C373.195 268.1 371.667 268.421 369.981 268.421C368.302 268.421 366.767 268.107 365.374 267.471C363.981 266.843 362.781 265.957 361.767 264.821C360.752 263.686 359.96 262.314 359.395 260.693C358.831 259.071 358.545 257.271 358.545 255.3C358.545 253.321 358.824 251.529 359.395 249.907C359.96 248.286 360.752 246.9 361.767 245.75C362.781 244.6 363.988 243.707 365.374 243.079C366.76 242.45 368.295 242.129 369.981 242.129C371.66 242.129 373.195 242.443 374.588 243.079C375.974 243.707 377.181 244.6 378.195 245.75C379.21 246.9 380.002 248.286 380.567 249.907C381.131 251.529 381.417 253.321 381.417 255.3ZM378.074 255.3C378.074 252.157 377.345 249.657 375.895 247.793C374.445 245.929 372.474 245 369.981 245C367.495 245 365.524 245.929 364.067 247.793C362.61 249.657 361.888 252.157 361.888 255.3C361.888 258.443 362.617 260.936 364.067 262.786C365.517 264.636 367.488 265.557 369.981 265.557C372.467 265.557 374.438 264.636 375.895 262.786C377.352 260.936 378.074 258.443 378.074 255.3Z" fill="url(#paint12_linear_83_15758)"/>
<path d="M394.595 268.279C393.531 268.243 392.602 268.107 391.81 267.864C391.017 267.621 390.352 267.25 389.824 266.75C389.288 266.25 388.888 265.6 388.61 264.807C388.331 264.014 388.195 263.014 388.195 261.821V230.714L391.345 230.129V261.721C391.345 262.5 391.417 263.121 391.567 263.593C391.71 264.064 391.931 264.436 392.224 264.714C392.517 264.993 392.895 265.193 393.36 265.321C393.831 265.45 394.388 265.564 395.031 265.664L394.595 268.279Z" fill="url(#paint13_linear_83_15758)"/>
<path d="M421.974 255.3C421.974 257.279 421.688 259.071 421.124 260.693C420.56 262.314 419.767 263.693 418.752 264.821C417.738 265.957 416.531 266.836 415.145 267.471C413.752 268.1 412.224 268.421 410.538 268.421C408.86 268.421 407.324 268.107 405.931 267.471C404.538 266.843 403.338 265.957 402.324 264.821C401.31 263.686 400.517 262.314 399.952 260.693C399.388 259.071 399.102 257.271 399.102 255.3C399.102 253.321 399.381 251.529 399.952 249.907C400.517 248.286 401.31 246.9 402.324 245.75C403.338 244.6 404.545 243.707 405.931 243.079C407.317 242.45 408.852 242.129 410.538 242.129C412.217 242.129 413.752 242.443 415.145 243.079C416.531 243.707 417.738 244.6 418.752 245.75C419.767 246.9 420.56 248.286 421.124 249.907C421.695 251.529 421.974 253.321 421.974 255.3ZM418.631 255.3C418.631 252.157 417.902 249.657 416.452 247.793C415.002 245.929 413.031 245 410.538 245C408.052 245 406.081 245.929 404.624 247.793C403.167 249.657 402.445 252.157 402.445 255.3C402.445 258.443 403.174 260.936 404.624 262.786C406.074 264.636 408.045 265.557 410.538 265.557C413.024 265.557 414.995 264.636 416.452 262.786C417.91 260.936 418.631 258.443 418.631 255.3Z" fill="url(#paint14_linear_83_15758)"/>
<path d="M445.138 266.436C444.945 266.607 444.652 266.807 444.267 267.029C443.881 267.257 443.402 267.486 442.838 267.729C442.274 267.971 441.624 268.171 440.902 268.321C440.174 268.479 439.36 268.557 438.452 268.557C436.995 268.557 435.595 268.314 434.238 267.829C432.881 267.343 431.695 266.586 430.674 265.55C429.66 264.514 428.838 263.171 428.224 261.529C427.61 259.886 427.302 257.893 427.302 255.543C427.302 253.643 427.574 251.879 428.124 250.257C428.674 248.636 429.46 247.221 430.474 246.036C431.488 244.843 432.738 243.907 434.202 243.236C435.674 242.564 437.331 242.221 439.167 242.221C441.495 242.221 443.36 242.386 444.767 242.714C446.174 243.043 447.324 243.364 448.231 243.671V268.143C448.231 272.15 447.26 275.014 445.324 276.721C443.388 278.429 440.46 279.286 436.552 279.286C434.938 279.286 433.474 279.157 432.167 278.9C430.86 278.643 429.738 278.336 428.802 277.993L429.431 274.936C430.21 275.314 431.267 275.643 432.602 275.921C433.945 276.2 435.295 276.336 436.652 276.336C439.624 276.336 441.781 275.721 443.124 274.493C444.467 273.264 445.138 271.164 445.138 268.193V266.436ZM445.088 246.007C444.538 245.836 443.831 245.671 442.952 245.514C442.081 245.357 440.838 245.279 439.224 245.279C437.867 245.279 436.66 245.529 435.617 246.029C434.567 246.529 433.674 247.236 432.924 248.157C432.181 249.071 431.617 250.164 431.231 251.421C430.845 252.686 430.652 254.071 430.652 255.593C430.652 257.357 430.881 258.864 431.331 260.129C431.781 261.393 432.374 262.421 433.102 263.214C433.831 264.007 434.66 264.586 435.595 264.95C436.531 265.314 437.488 265.493 438.452 265.493C439.874 265.493 441.174 265.271 442.352 264.821C443.531 264.371 444.445 263.857 445.088 263.264V246.007Z" fill="url(#paint15_linear_83_15758)"/>
<path d="M460.452 235.129C460.452 235.871 460.224 236.464 459.774 236.9C459.324 237.336 458.774 237.557 458.124 237.557C457.474 237.557 456.931 237.336 456.474 236.9C456.024 236.464 455.795 235.871 455.795 235.129C455.795 234.386 456.024 233.793 456.474 233.357C456.924 232.921 457.474 232.7 458.124 232.7C458.767 232.7 459.317 232.921 459.774 233.357C460.224 233.793 460.452 234.386 460.452 235.129ZM459.724 268.343H456.574V242.714H459.724V268.343Z" fill="url(#paint16_linear_83_15758)"/>
<path d="M475.667 242.129C477.317 242.129 478.71 242.364 479.86 242.836C481.002 243.307 481.938 243.95 482.645 244.779C483.352 245.607 483.874 246.586 484.195 247.721C484.517 248.857 484.681 250.086 484.681 251.414V267.257C484.36 267.357 483.888 267.457 483.274 267.571C482.66 267.686 481.945 267.807 481.138 267.936C480.331 268.064 479.431 268.171 478.445 268.25C477.46 268.329 476.452 268.371 475.417 268.371C474.095 268.371 472.874 268.229 471.76 267.936C470.645 267.643 469.674 267.186 468.852 266.55C468.031 265.921 467.381 265.107 466.917 264.121C466.445 263.136 466.217 261.929 466.217 260.5C466.217 259.136 466.474 257.971 466.995 257C467.51 256.029 468.238 255.229 469.174 254.593C470.11 253.964 471.224 253.5 472.517 253.207C473.81 252.914 475.217 252.771 476.731 252.771C477.181 252.771 477.66 252.793 478.16 252.843C478.66 252.893 479.145 252.957 479.617 253.036C480.088 253.114 480.488 253.2 480.831 253.279C481.167 253.357 481.402 253.436 481.531 253.5V251.943C481.531 251.064 481.467 250.214 481.338 249.393C481.21 248.571 480.924 247.821 480.488 247.157C480.052 246.493 479.438 245.957 478.645 245.55C477.852 245.143 476.81 244.943 475.517 244.943C473.674 244.943 472.302 245.071 471.395 245.329C470.488 245.586 469.831 245.8 469.41 245.957L468.974 243.186C469.524 242.929 470.374 242.686 471.517 242.457C472.674 242.243 474.052 242.129 475.667 242.129ZM475.96 265.557C477.188 265.557 478.26 265.514 479.181 265.436C480.102 265.357 480.888 265.25 481.531 265.121V256.279C481.174 256.114 480.61 255.95 479.838 255.771C479.06 255.593 477.995 255.507 476.638 255.507C475.86 255.507 475.052 255.564 474.217 255.679C473.374 255.793 472.602 256.036 471.888 256.407C471.174 256.779 470.595 257.293 470.145 257.936C469.695 258.586 469.467 259.443 469.467 260.514C469.467 261.457 469.617 262.25 469.924 262.893C470.231 263.543 470.667 264.057 471.231 264.45C471.795 264.836 472.474 265.121 473.267 265.3C474.06 265.464 474.96 265.557 475.96 265.557Z" fill="url(#paint17_linear_83_15758)"/>
</g>
<defs>
<linearGradient id="paint0_linear_83_15758" x1="359.288" y1="20.7144" x2="21.6446" y2="301.117" gradientUnits="userSpaceOnUse">
<stop offset="0.0279613" stop-color="#6B00D6"/>
<stop offset="1" stop-color="#00FCCE"/>
</linearGradient>
<linearGradient id="paint1_linear_83_15758" x1="359.288" y1="20.7144" x2="21.6446" y2="301.117" gradientUnits="userSpaceOnUse">
<stop offset="0.0279613" stop-color="#6B00D6"/>
<stop offset="1" stop-color="#00FCCE"/>
</linearGradient>
<linearGradient id="paint2_linear_83_15758" x1="359.288" y1="20.7144" x2="21.6446" y2="301.117" gradientUnits="userSpaceOnUse">
<stop offset="0.0279613" stop-color="#6B00D6"/>
<stop offset="1" stop-color="#00FCCE"/>
</linearGradient>
<linearGradient id="paint3_linear_83_15758" x1="359.288" y1="20.7144" x2="21.6446" y2="301.117" gradientUnits="userSpaceOnUse">
<stop offset="0.0279613" stop-color="#6B00D6"/>
<stop offset="1" stop-color="#00FCCE"/>
</linearGradient>
<linearGradient id="paint4_linear_83_15758" x1="359.288" y1="20.7144" x2="21.6446" y2="301.117" gradientUnits="userSpaceOnUse">
<stop offset="0.0279613" stop-color="#6B00D6"/>
<stop offset="1" stop-color="#00FCCE"/>
</linearGradient>
<linearGradient id="paint5_linear_83_15758" x1="199.828" y1="100.53" x2="239.828" y2="100.53" gradientUnits="userSpaceOnUse">
<stop stop-color="#4360D3"/>
<stop offset="1" stop-color="#4A4ED4"/>
</linearGradient>
<linearGradient id="paint6_linear_83_15758" x1="179.869" y1="219.797" x2="139.477" y2="219.797" gradientUnits="userSpaceOnUse">
<stop stop-color="#2C96D2"/>
<stop offset="1" stop-color="#24A8D1"/>
</linearGradient>
<linearGradient id="paint7_linear_83_15758" x1="186.27" y1="60.1239" x2="145.546" y2="60.1239" gradientUnits="userSpaceOnUse">
<stop stop-color="#2C96D2"/>
<stop offset="1" stop-color="#24A8D1"/>
</linearGradient>
<linearGradient id="paint8_linear_83_15758" x1="568.812" y1="255.34" x2="185.147" y2="255.34" gradientUnits="userSpaceOnUse">
<stop stop-color="#00FCCE"/>
<stop offset="1" stop-color="#6B00D6"/>
</linearGradient>
<linearGradient id="paint9_linear_83_15758" x1="568.812" y1="255.34" x2="185.147" y2="255.34" gradientUnits="userSpaceOnUse">
<stop stop-color="#00FCCE"/>
<stop offset="1" stop-color="#6B00D6"/>
</linearGradient>
<linearGradient id="paint10_linear_83_15758" x1="568.812" y1="255.34" x2="185.147" y2="255.34" gradientUnits="userSpaceOnUse">
<stop stop-color="#00FCCE"/>
<stop offset="1" stop-color="#6B00D6"/>
</linearGradient>
<linearGradient id="paint11_linear_83_15758" x1="568.812" y1="255.34" x2="185.147" y2="255.34" gradientUnits="userSpaceOnUse">
<stop stop-color="#00FCCE"/>
<stop offset="1" stop-color="#6B00D6"/>
</linearGradient>
<linearGradient id="paint12_linear_83_15758" x1="568.812" y1="255.34" x2="185.147" y2="255.34" gradientUnits="userSpaceOnUse">
<stop stop-color="#00FCCE"/>
<stop offset="1" stop-color="#6B00D6"/>
</linearGradient>
<linearGradient id="paint13_linear_83_15758" x1="568.812" y1="255.34" x2="185.147" y2="255.34" gradientUnits="userSpaceOnUse">
<stop stop-color="#00FCCE"/>
<stop offset="1" stop-color="#6B00D6"/>
</linearGradient>
<linearGradient id="paint14_linear_83_15758" x1="568.812" y1="255.34" x2="185.147" y2="255.34" gradientUnits="userSpaceOnUse">
<stop stop-color="#00FCCE"/>
<stop offset="1" stop-color="#6B00D6"/>
</linearGradient>
<linearGradient id="paint15_linear_83_15758" x1="568.812" y1="255.34" x2="185.147" y2="255.34" gradientUnits="userSpaceOnUse">
<stop stop-color="#00FCCE"/>
<stop offset="1" stop-color="#6B00D6"/>
</linearGradient>
<linearGradient id="paint16_linear_83_15758" x1="568.812" y1="255.34" x2="185.147" y2="255.34" gradientUnits="userSpaceOnUse">
<stop stop-color="#00FCCE"/>
<stop offset="1" stop-color="#6B00D6"/>
</linearGradient>
<linearGradient id="paint17_linear_83_15758" x1="568.812" y1="255.34" x2="185.147" y2="255.34" gradientUnits="userSpaceOnUse">
<stop stop-color="#00FCCE"/>
<stop offset="1" stop-color="#6B00D6"/>
</linearGradient>
<clipPath id="clip0_83_15758">
<rect width="640" height="320" fill="white"/>
</clipPath>
</defs>
</svg>
