<svg width="1000" height="960" viewBox="0 0 1000 960" fill="none" xmlns="http://www.w3.org/2000/svg">
<g clip-path="url(#clip0_83_19378)">
<mask id="mask0_83_19378" style="mask-type:alpha" maskUnits="userSpaceOnUse" x="-711" y="-252" width="2403" height="1832">
<path d="M-709.764 -250.764V1579M-659.75 -250.764V1579M-609.736 -250.764V1579M-559.722 -250.764V1579M-509.707 -250.764V1579M-459.693 -250.764V1579M-409.679 -250.764V1579M-359.665 -250.764V1579M-309.651 -250.764V1579M-259.636 -250.764V1579M-209.622 -250.764V1579M-159.608 -250.764V1579M-109.594 -250.764V1579M-59.5797 -250.764V1579M-9.56556 -250.764V1579M40.4486 -250.764V1579M90.4628 -250.764V1579M140.477 -250.764V1579M190.491 -250.764V1579M240.505 -250.764V1579M290.52 -250.764V1579M340.534 -250.764V1579M390.548 -250.764V1579M440.562 -250.764V1579M490.576 -250.764V1579M540.59 -250.764V1579M590.605 -250.764V1579M640.619 -250.764V1579M690.633 -250.764V1579M740.647 -250.764V1579M790.661 -250.764V1579M840.675 -250.764V1579M890.69 -250.764V1579M940.704 -250.764V1579M990.718 -250.764V1579M1040.73 -250.764V1579M1090.75 -250.764V1579M1140.76 -250.764V1579M1190.77 -250.764V1579M1240.79 -250.764V1579M1290.8 -250.764V1579M1340.82 -250.764V1579M1390.83 -250.764V1579M1440.85 -250.764V1579M1490.86 -250.764V1579M1540.87 -250.764V1579M1590.89 -250.764V1579M1640.9 -250.764V1579M1690.92 -250.764V1579M-710 1578.76H1690.68M-710 1527.94H1690.68M-710 1477.11H1690.68M-710 1426.28H1690.68M-710 1375.46H1690.68M-710 1324.63H1690.68M-710 1273.8H1690.68M-710 1222.98H1690.68M-710 1172.15H1690.68M-710 1121.32H1690.68M-710 1070.5H1690.68M-710 1019.67H1690.68M-710 968.843H1690.68M-710 918.016H1690.68M-710 867.189H1690.68M-710 816.362H1690.68M-710 765.536H1690.68M-710 714.709H1690.68M-710 663.882H1690.68M-710 613.055H1690.68M-710 562.228H1690.68M-710 511.402H1690.68M-710 460.575H1690.68M-710 409.748H1690.68M-710 358.921H1690.68M-710 308.095H1690.68M-710 257.268H1690.68M-710 206.441H1690.68M-710 155.614H1690.68M-710 104.788H1690.68M-710 53.9609H1690.68M-710 3.134H1690.68M-710 -47.693H1690.68M-710 -98.5199H1690.68M-710 -149.346H1690.68M-710 -200.173H1690.68M-710 -251H1690.68" stroke="white" stroke-opacity="0.47" stroke-width="1.4155"/>
</mask>
<g mask="url(#mask0_83_19378)">
<g filter="url(#filter0_f_83_19378)">
<circle cx="470" cy="476" r="187" fill="#7AA8FF"/>
</g>
</g>
</g>
<defs>
<filter id="filter0_f_83_19378" x="-167" y="-161" width="1274" height="1274" filterUnits="userSpaceOnUse" color-interpolation-filters="sRGB">
<feFlood flood-opacity="0" result="BackgroundImageFix"/>
<feBlend mode="normal" in="SourceGraphic" in2="BackgroundImageFix" result="shape"/>
<feGaussianBlur stdDeviation="225" result="effect1_foregroundBlur_83_19378"/>
</filter>
<clipPath id="clip0_83_19378">
<rect width="1000" height="960" fill="white"/>
</clipPath>
</defs>
</svg>
