<svg width="935" height="785" viewBox="0 0 935 785" fill="none" xmlns="http://www.w3.org/2000/svg">
<g filter="url(#filter0_d_83_17516)">
<path d="M495.728 227.574L496.225 596.774C496.225 602.598 500.904 607.331 506.66 607.331H510.588C561.511 607.331 602.943 565.417 602.943 513.901L603.386 226.211M495.728 227.574L495.422 443.201M495.728 227.574C495.728 108.123 591.795 9.98068 709.872 9.98068C827.949 9.98068 924 107.15 924 226.6C924 346.051 827.949 443.22 709.872 443.22H603.105M603.386 226.211C603.386 166.301 651.556 117.57 710.777 117.57C769.998 117.57 818.168 166.301 818.168 226.211C818.168 286.121 769.998 334.852 710.777 334.852H602.943L603.386 226.211L603.105 443.22L603.019 510.181C603.019 566.468 567.402 607.369 505.746 607.369C499.931 607.369 495.204 602.647 495.204 596.836L495.728 227.574M440.334 552.835L439.295 182.466C439.295 176.779 434.732 172.163 429.11 172.163H425.067C374.067 172.163 332.578 214.135 332.578 265.729L332.596 334.852M439.911 335.241L440.334 552.835C440.334 672.772 344.225 770 225.667 770C107.109 770 11 672.772 11 552.835C11 432.897 107.109 335.67 225.667 335.67L332.596 334.852M495.422 443.201H439.911V335.241H495.583L495.422 443.201ZM440.409 552.795V182.778C440.409 177.091 434.807 172.162 429.186 172.162C375.913 170.118 329.706 212.966 332.653 269.819V552.795L332.596 334.852M457.661 62.0216C457.661 92.4093 433.311 117.043 403.273 117.043C373.235 117.043 348.884 92.4093 348.884 62.0216C348.884 31.634 373.235 7 403.273 7C433.311 7 457.661 31.634 457.661 62.0216ZM332.519 552.835C332.519 612.531 284.677 660.931 225.667 660.931C166.658 660.931 118.815 612.531 118.815 552.835C118.815 493.139 166.658 444.739 225.667 444.739L332.653 443.22L332.519 552.835ZM587.502 715.075C587.502 745.161 563.393 769.551 533.652 769.551C503.912 769.551 479.803 745.161 479.803 715.075C479.803 684.988 503.912 660.599 533.652 660.599C563.393 660.599 587.502 684.988 587.502 715.075Z" stroke="url(#paint0_linear_83_17516)" stroke-width="2" shape-rendering="crispEdges"/>
</g>
<defs>
<filter id="filter0_d_83_17516" x="0" y="0" width="935" height="785" filterUnits="userSpaceOnUse" color-interpolation-filters="sRGB">
<feFlood flood-opacity="0" result="BackgroundImageFix"/>
<feColorMatrix in="SourceAlpha" type="matrix" values="0 0 0 0 0 0 0 0 0 0 0 0 0 0 0 0 0 0 127 0" result="hardAlpha"/>
<feOffset dy="4"/>
<feGaussianBlur stdDeviation="5"/>
<feComposite in2="hardAlpha" operator="out"/>
<feColorMatrix type="matrix" values="0 0 0 0 0 0 0 0 0 0.988235 0 0 0 0 0.807843 0 0 0 1 0"/>
<feBlend mode="normal" in2="BackgroundImageFix" result="effect1_dropShadow_83_17516"/>
<feBlend mode="normal" in="SourceGraphic" in2="effect1_dropShadow_83_17516" result="shape"/>
</filter>
<linearGradient id="paint0_linear_83_17516" x1="467.5" y1="7" x2="467.5" y2="770" gradientUnits="userSpaceOnUse">
<stop stop-color="#00FCCE"/>
<stop offset="1" stop-color="#0085DD"/>
</linearGradient>
</defs>
</svg>
