<svg width="96" height="96" viewBox="0 0 96 96" fill="none" xmlns="http://www.w3.org/2000/svg">
<path d="M47.6357 6.55583H48.335C49.9668 6.51435 51.524 6.79233 52.9473 7.63297C55.087 8.96718 56.6794 10.9039 58.4551 12.6349C60.6918 14.8154 62.8903 17.036 65.1025 19.2414C67.4209 21.5525 69.7412 23.8619 72.0625 26.1701C74.2501 28.3475 76.4387 30.5246 78.6279 32.7004C80.9243 34.981 83.2196 37.2632 85.5137 39.5461C85.952 39.9795 86.372 40.4314 86.8174 40.8586C88.1775 42.1521 89.0001 43.7503 89.3945 45.5558C90.1629 49.0741 89.3263 52.1712 86.8271 54.8009C86.7635 54.8693 86.6926 54.9311 86.6152 54.9836C86.2724 55.2683 85.9499 55.5769 85.6514 55.9074C85.6007 55.9655 85.5461 56.0204 85.4883 56.0715C85.2767 56.2889 85.0113 56.4434 84.792 56.6515C84.7592 56.6886 84.7232 56.7231 84.6846 56.7541C84.5023 56.8754 84.3327 57.0148 84.1797 57.1711C84.1299 57.2259 84.0738 57.2756 84.0127 57.3175C83.8482 57.4663 83.632 57.5501 83.4912 57.7287C83.3748 57.8591 83.2446 57.9768 83.1035 58.0802C82.8952 58.219 82.7022 58.3801 82.5283 58.5597C80.9536 59.8595 79.2997 61.0557 77.6357 62.2375C77.2782 62.5151 76.8435 62.6797 76.5107 62.9943C76.457 63.0474 76.3965 63.0935 76.332 63.133C76.0197 63.2884 75.7284 63.4832 75.4648 63.7111C75.3452 63.813 75.2136 63.9008 75.0732 63.9718C68.7423 68.1094 62.1087 71.6355 54.9482 74.0978C59.5982 72.5791 64.2281 71.0084 68.6602 68.9084C70.5585 68.0089 72.4496 67.0971 74.2969 66.0978C74.513 65.9809 74.7448 65.9088 74.9678 65.8127C75.1094 65.7516 75.2584 65.6662 75.3721 65.8215C75.4766 65.9646 75.3765 66.1073 75.292 66.2297C75.1749 66.3991 74.9683 66.4876 74.8701 66.6759C71.5107 70.0543 68.1159 73.399 64.7432 76.7648C61.6084 79.8932 58.4713 83.0197 55.3311 86.1427C55.2332 86.2557 55.1204 86.3559 54.9971 86.4406C54.5857 86.8646 54.1275 87.241 53.6318 87.5636C53.5152 87.6613 53.3857 87.7429 53.2471 87.8058C53.1048 87.8604 52.9751 87.9447 52.8672 88.0519C52.5449 88.2396 52.2032 88.3933 51.8486 88.5099C51.5348 88.6363 51.1969 88.7042 50.9092 88.8947C50.3378 89.1101 49.7321 89.085 49.1396 89.1213C48.0971 89.1807 47.0516 89.1632 46.0117 89.0685C45.0837 88.988 44.2398 88.6319 43.4131 88.2336C42.8867 87.8456 42.2928 87.5569 41.7715 87.1603C41.5984 87.0951 41.4522 86.9742 41.3564 86.8166C41.291 86.6584 41.1661 86.5311 41.0088 86.4621C40.918 86.4162 40.8368 86.3525 40.7705 86.2756C39.6101 85.1211 38.455 83.9608 37.291 82.8107C36.55 82.0786 35.8045 81.3474 35.0645 80.6144C34.3248 79.8817 33.59 79.1409 32.8545 78.4035C32.106 77.653 31.3526 76.9053 30.5947 76.1623C29.8532 75.4318 29.1036 74.707 28.3877 73.9504C27.7742 73.302 27.0868 72.7275 26.4775 72.0744C23.0343 68.7127 19.648 65.2935 16.2314 61.9054C14.0509 59.7431 11.8735 57.577 9.70117 55.4064C8.7002 54.4181 7.87116 53.2707 7.24805 52.0119C6.81036 51.1195 6.70802 50.165 6.54492 49.216V48.4308C6.63791 47.9873 6.63797 47.5287 6.54492 47.0851V46.5246C6.68665 45.4414 6.78643 44.3465 7.36523 43.3761C7.63724 42.9465 7.90673 42.5146 8.16699 42.0773C8.19726 41.9746 8.255 41.8814 8.33398 41.8088C8.74724 41.3537 9.16145 40.8981 9.60254 40.4689C10.5125 39.5437 11.5244 38.7324 12.5156 37.8986C12.9194 37.5443 13.3281 37.1956 13.7578 36.8722C14.0051 36.6979 14.2407 36.5071 14.4619 36.3009C15.418 35.5701 16.3687 34.8316 17.3662 34.1564C18.0081 33.6306 18.785 33.2856 19.3682 32.6808C20.4936 31.9925 21.5585 31.2085 22.7031 30.549C24.6587 29.3043 26.6453 28.1086 28.7031 27.0412C32.7272 24.9538 36.7861 22.9397 41.1191 21.5402C35.9925 23.1999 30.913 24.9813 26.0625 27.3615C24.9893 27.8881 23.8793 28.3413 22.8564 28.967C22.3949 29.1903 21.9305 29.4084 21.4834 29.6613C21.2602 29.7875 21.0282 29.9166 20.7607 29.7638C20.6092 29.5186 20.7654 29.3632 20.9258 29.2101C21.1375 29.013 21.3355 28.8009 21.5176 28.5763C28.0559 22.0598 34.6025 15.5507 41.1572 9.04997C42.9214 7.31032 45.1164 6.46213 47.6357 6.55583ZM52.9795 74.7257C52.8358 74.789 52.6827 74.8285 52.5264 74.8439C52.3203 74.9474 52.1001 75.0212 51.873 75.0627C51.8711 75.0633 51.8691 75.0639 51.8672 75.0646C52.0932 75.0246 52.3128 74.953 52.5176 74.8498C52.6764 74.8306 52.832 74.7895 52.9795 74.7277C53.0638 74.7104 53.1472 74.6882 53.2295 74.6632C53.1461 74.6832 53.0609 74.6987 52.9795 74.7257ZM46.5547 40.8625C46.4496 40.5639 46.2646 40.5724 46.0693 40.798C45.9523 40.8397 45.9771 40.9393 45.9756 41.0275C45.9313 41.1923 45.9685 41.3975 45.7539 41.4797V41.4816C45.6549 41.6169 45.7514 41.8486 45.5352 41.9269C45.0007 42.9151 44.5092 43.9243 44.0615 44.9543C44.0564 45.1887 44.0001 45.4194 43.8965 45.63C43.7929 45.8405 43.6447 46.0263 43.4619 46.174C42.0878 48.9607 40.7133 51.7478 39.3057 54.6027C39.8831 54.6027 40.3671 54.6061 40.8506 54.6017C41.4499 54.5963 42.1829 54.7905 42.6113 54.5168C43.0354 54.2453 43.1793 53.509 43.3955 52.9572C43.5238 52.6301 43.7211 52.5704 44.0352 52.5744C45.217 52.5895 46.4121 52.6879 47.5781 52.5519C48.8936 52.3984 49.6629 52.8141 49.9307 54.1105C49.9661 54.2166 50.0114 54.3196 50.0664 54.4172C50.0812 54.471 50.1143 54.5185 50.1592 54.5519C50.204 54.5851 50.2587 54.6028 50.3145 54.6017C51.3908 54.5995 52.4678 54.6007 53.625 54.6007C52.8809 53.0941 52.185 51.6741 51.4805 50.259C49.9988 47.2882 48.5164 44.3173 47.0342 41.3468C46.9197 41.3133 46.8153 41.2507 46.7314 41.1662C46.6477 41.0816 46.5868 40.9768 46.5547 40.8625ZM58.2148 40.2707C57.881 40.3354 57.9762 40.7234 57.9229 40.9709C57.663 42.1729 57.427 43.3807 57.1826 44.5861C56.537 47.7827 55.8876 50.9788 55.2354 54.174C55.1771 54.4594 55.1874 54.6194 55.5615 54.6095C56.4806 54.5852 57.4008 54.5943 58.3203 54.6037C58.5712 54.6062 58.6742 54.5308 58.7207 54.2687C58.8867 53.3331 59.0863 52.4027 59.2734 51.4709C59.4955 50.3651 59.7177 49.2591 59.959 48.0588C60.7767 49.2533 61.5335 50.3588 62.29 51.464C62.579 51.5345 62.6672 51.7385 62.6543 52.009L62.6562 52.0119C63.0112 52.2715 63.2045 51.9496 63.4443 51.7951L63.4434 51.799C63.5191 51.7023 63.4582 51.5699 63.5088 51.4797C63.6925 51.1543 63.5046 50.6975 63.8818 50.4445C63.9251 50.3341 63.9685 50.2229 64.0117 50.1125C64.0047 49.9058 64.0769 49.7035 64.2139 49.548C64.3008 49.4218 64.3476 49.2723 64.3477 49.1193C64.4106 48.925 64.409 48.7075 64.5518 48.5412C64.6154 48.3176 64.6385 48.0679 64.7568 47.8781C64.8457 47.734 64.6616 47.4401 64.9697 47.4435C65.1834 47.446 65.1828 47.6782 65.251 47.8175C66.3016 49.961 67.3483 52.1066 68.3906 54.2541C68.4814 54.4412 68.5334 54.6119 68.8115 54.6076C69.8585 54.5911 70.9062 54.6017 71.9932 54.6017C71.9704 54.5189 71.943 54.4364 71.9111 54.3566C69.68 49.7579 67.4442 45.1605 65.2051 40.5656C65.1535 40.4589 65.1486 40.2821 64.9805 40.2736C64.7597 40.2625 64.7841 40.4746 64.7422 40.5968C64.111 42.4294 63.4901 44.2663 62.8643 46.1007C62.7595 46.4078 62.6434 46.7114 62.5117 47.0744C62.3856 46.8824 62.299 46.7617 62.2236 46.6349C61.0792 44.7084 59.9418 42.7774 58.7861 40.8576C58.6461 40.6247 58.6021 40.1959 58.2148 40.2707ZM30.5605 40.2394C30.1492 40.2249 29.9414 40.3433 29.7588 40.7267C28.4547 43.465 27.1096 46.184 25.8008 48.9201C25.206 50.1634 24.4865 51.3539 24.0879 52.6838C23.7063 53.9572 24.1816 54.5903 25.5137 54.5978C27.2215 54.6073 28.9298 54.6005 30.6377 54.6007C32.8711 54.6029 35.1045 54.602 37.3379 54.5988C37.5398 54.5985 37.8186 54.6908 37.7344 54.2873C37.3414 52.3894 36.9522 50.4904 36.5664 48.591C36.5235 48.3798 36.4378 48.2811 36.1953 48.2834C34.9194 48.2952 33.6432 48.2907 32.3672 48.2843C32.1318 48.2832 32.0293 48.3286 32.0918 48.6007C32.205 49.0721 32.2899 49.5501 32.3467 50.0314C32.3981 50.508 32.5577 50.789 33.1025 50.6916C33.2781 50.6602 33.5154 50.6346 33.542 50.9035C33.5835 51.3229 33.7962 51.7222 33.6934 52.1545C33.6851 52.1836 33.5584 52.1978 33.4873 52.1974C31.8737 52.1899 30.2591 52.2016 28.6465 52.1574C27.9939 52.1394 27.82 51.8498 28.0713 51.2804C28.5338 50.2327 29.0389 49.203 29.5264 48.1662C29.7545 47.9195 29.6172 47.4861 29.9717 47.3039L30.1328 46.9816C30.002 46.8233 30.1983 46.8278 30.2451 46.758C31.3142 44.6121 32.3833 42.4661 33.4873 40.2502C32.4334 40.2502 31.4959 40.2725 30.5605 40.2394ZM48.1006 49.8722C48.2049 50.121 48.1175 50.2022 47.8594 50.2004C46.885 50.1929 45.91 50.1936 44.9355 50.2013C44.6595 50.2034 44.556 50.1495 44.6865 49.8498C45.2509 48.5548 45.7979 47.252 46.4062 45.8224C47.0112 47.2692 47.5551 48.5712 48.1006 49.8722ZM43.8926 20.6808H43.8945C43.9607 20.6587 43.8628 20.6916 43.9336 20.6681C43.9207 20.6702 43.9089 20.6765 43.8926 20.6808Z" fill="#F1F1F1"/>
</svg>
