<svg width="398" height="350" viewBox="0 0 398 350" fill="none" xmlns="http://www.w3.org/2000/svg">
<g filter="url(#filter0_d_83_19403)">
<path d="M356.791 162.039L337.65 114.187C336.429 111.152 334.327 108.55 331.615 106.718C328.904 104.886 325.706 103.907 322.434 103.906H269.688V87.5C269.688 86.0496 269.111 84.6586 268.086 83.633C267.06 82.6074 265.669 82.0312 264.219 82.0312H56.4062C52.055 82.0312 47.882 83.7598 44.8053 86.8365C41.7285 89.9133 40 94.0863 40 98.4375V251.562C40 255.914 41.7285 260.087 44.8053 263.163C47.882 266.24 52.055 267.969 56.4062 267.969H84.1465C85.4673 277.074 90.0233 285.399 96.9804 291.42C103.938 297.441 112.831 300.755 122.031 300.755C131.232 300.755 140.125 297.441 147.082 291.42C154.039 285.399 158.595 277.074 159.916 267.969H237.271C238.592 277.074 243.148 285.399 250.105 291.42C257.063 297.441 265.956 300.755 275.156 300.755C284.357 300.755 293.25 297.441 300.207 291.42C307.164 285.399 311.72 277.074 313.041 267.969H340.781C345.132 267.969 349.305 266.24 352.382 263.163C355.459 260.087 357.188 255.914 357.188 251.562V164.062C357.185 163.369 357.05 162.682 356.791 162.039ZM269.688 114.844H322.434C323.527 114.842 324.597 115.167 325.503 115.779C326.41 116.391 327.112 117.26 327.52 118.275L343.639 158.594H269.688V114.844ZM50.9375 98.4375C50.9375 96.9871 51.5137 95.5961 52.5393 94.5705C53.5649 93.5449 54.9558 92.9688 56.4062 92.9688H258.75V191.406H50.9375V98.4375ZM122.031 289.844C116.623 289.844 111.337 288.24 106.84 285.236C102.343 282.231 98.8385 277.96 96.7689 272.964C94.6993 267.968 94.1578 262.47 95.2129 257.165C96.268 251.861 98.8722 246.989 102.696 243.165C106.52 239.341 111.393 236.737 116.697 235.682C122.001 234.627 127.499 235.168 132.495 237.238C137.492 239.307 141.762 242.812 144.767 247.309C147.771 251.805 149.375 257.092 149.375 262.5C149.375 266.091 148.668 269.647 147.294 272.964C145.919 276.282 143.905 279.296 141.366 281.835C138.827 284.374 135.813 286.388 132.495 287.762C129.178 289.136 125.622 289.844 122.031 289.844ZM237.271 257.031H159.916C158.595 247.926 154.039 239.601 147.082 233.58C140.125 227.559 131.232 224.245 122.031 224.245C112.831 224.245 103.938 227.559 96.9804 233.58C90.0233 239.601 85.4673 247.926 84.1465 257.031H56.4062C54.9558 257.031 53.5649 256.455 52.5393 255.429C51.5137 254.404 50.9375 253.013 50.9375 251.562V202.344H258.75V227.924C253.051 230.634 248.11 234.708 244.363 239.786C240.616 244.863 238.181 250.787 237.271 257.031ZM275.156 289.844C269.748 289.844 264.462 288.24 259.965 285.236C255.468 282.231 251.964 277.96 249.894 272.964C247.824 267.968 247.283 262.47 248.338 257.165C249.393 251.861 251.997 246.989 255.821 243.165C259.645 239.341 264.518 236.737 269.822 235.682C275.126 234.627 280.624 235.168 285.62 237.238C290.617 239.307 294.887 242.812 297.892 247.309C300.896 251.805 302.5 257.092 302.5 262.5C302.5 269.752 299.619 276.707 294.491 281.835C289.363 286.963 282.408 289.844 275.156 289.844ZM346.25 251.562C346.25 253.013 345.674 254.404 344.648 255.429C343.623 256.455 342.232 257.031 340.781 257.031H313.041C311.59 246.984 306.207 237.925 298.077 231.846C289.947 225.767 279.735 223.166 269.688 224.615V169.531H346.25V251.562Z" fill="white"/>
</g>
<defs>
<filter id="filter0_d_83_19403" x="-16.4062" y="-36" width="430" height="430" filterUnits="userSpaceOnUse" color-interpolation-filters="sRGB">
<feFlood flood-opacity="0" result="BackgroundImageFix"/>
<feColorMatrix in="SourceAlpha" type="matrix" values="0 0 0 0 0 0 0 0 0 0 0 0 0 0 0 0 0 0 127 0" result="hardAlpha"/>
<feOffset dy="4"/>
<feGaussianBlur stdDeviation="20"/>
<feComposite in2="hardAlpha" operator="out"/>
<feColorMatrix type="matrix" values="0 0 0 0 0 0 0 0 0 0.922353 0 0 0 0 0.988235 0 0 0 1 0"/>
<feBlend mode="normal" in2="BackgroundImageFix" result="effect1_dropShadow_83_19403"/>
<feBlend mode="normal" in="SourceGraphic" in2="effect1_dropShadow_83_19403" result="shape"/>
</filter>
</defs>
</svg>
