<svg width="376" height="350" viewBox="0 0 376 350" fill="none" xmlns="http://www.w3.org/2000/svg">
<g filter="url(#filter0_d_83_19402)">
<path d="M111.094 180.469H56.4062C54.9558 180.469 53.5649 179.893 52.5393 178.867C51.5137 177.841 50.9375 176.45 50.9375 175C50.9375 173.55 51.5137 172.159 52.5393 171.133C53.5649 170.107 54.9558 169.531 56.4062 169.531H108.168L128.416 139.152C128.915 138.402 129.592 137.787 130.386 137.362C131.181 136.936 132.068 136.713 132.969 136.713C133.87 136.713 134.757 136.936 135.551 137.362C136.345 137.787 137.022 138.402 137.521 139.152L176.719 197.941L194.041 171.965C194.541 171.216 195.218 170.602 196.012 170.177C196.806 169.752 197.693 169.531 198.594 169.531H231.406C232.857 169.531 234.248 170.107 235.273 171.133C236.299 172.159 236.875 173.55 236.875 175C236.875 176.45 236.299 177.841 235.273 178.867C234.248 179.893 232.857 180.469 231.406 180.469H201.52L181.271 210.848C180.772 211.598 180.095 212.213 179.301 212.638C178.507 213.064 177.62 213.287 176.719 213.287C175.818 213.287 174.931 213.064 174.136 212.638C173.342 212.213 172.665 211.598 172.166 210.848L132.969 152.045L115.646 178.021C115.148 178.773 114.472 179.39 113.677 179.817C112.883 180.244 111.996 180.468 111.094 180.469ZM256.016 49.2188C226.703 49.2188 201.437 63.1504 187.656 86.2285C173.875 63.1504 148.609 49.2188 119.297 49.2188C98.2738 49.2441 78.1191 57.6067 63.2535 72.4722C48.3879 87.3378 40.0253 107.493 40 128.516C40 129.482 40 130.452 40 131.428C40.0471 132.878 40.6685 134.25 41.7274 135.243C42.7864 136.235 44.1961 136.766 45.6465 136.719C47.0969 136.672 48.4692 136.05 49.4614 134.991C50.4537 133.932 50.9846 132.523 50.9375 131.072C50.9375 130.225 50.9375 129.377 50.9375 128.516C50.9592 110.392 58.1683 93.0174 70.9835 80.2022C83.7986 67.3871 101.174 60.178 119.297 60.1562C148.158 60.1562 172.412 75.6191 182.598 100.502C183.01 101.505 183.711 102.363 184.611 102.967C185.512 103.57 186.572 103.893 187.656 103.893C188.741 103.893 189.8 103.57 190.701 102.967C191.602 102.363 192.303 101.505 192.715 100.502C202.9 75.6191 227.154 60.1562 256.016 60.1562C274.139 60.178 291.514 67.3871 304.329 80.2022C317.144 93.0174 324.353 110.392 324.375 128.516C324.375 207.812 206.797 278.168 187.656 289.051C176.076 282.461 128.184 254.037 92.459 215.059C91.471 214.025 90.1174 213.419 88.6883 213.372C87.2592 213.324 85.8682 213.838 84.8134 214.803C83.7587 215.769 83.1239 217.109 83.0453 218.536C82.9666 219.964 83.4502 221.366 84.3926 222.441C126.393 268.27 182.693 298.854 185.059 300.125C185.857 300.556 186.749 300.781 187.656 300.781C188.563 300.781 189.456 300.556 190.254 300.125C215.829 285.741 239.958 268.924 262.305 249.908C310.703 208.455 335.312 167.604 335.312 128.516C335.287 107.493 326.925 87.3378 312.059 72.4722C297.193 57.6067 277.039 49.2441 256.016 49.2188Z" fill="white"/>
</g>
<defs>
<filter id="filter0_d_83_19402" x="-27.3438" y="-36" width="430" height="430" filterUnits="userSpaceOnUse" color-interpolation-filters="sRGB">
<feFlood flood-opacity="0" result="BackgroundImageFix"/>
<feColorMatrix in="SourceAlpha" type="matrix" values="0 0 0 0 0 0 0 0 0 0 0 0 0 0 0 0 0 0 127 0" result="hardAlpha"/>
<feOffset dy="4"/>
<feGaussianBlur stdDeviation="20"/>
<feComposite in2="hardAlpha" operator="out"/>
<feColorMatrix type="matrix" values="0 0 0 0 0 0 0 0 0 0.922353 0 0 0 0 0.988235 0 0 0 1 0"/>
<feBlend mode="normal" in2="BackgroundImageFix" result="effect1_dropShadow_83_19402"/>
<feBlend mode="normal" in="SourceGraphic" in2="effect1_dropShadow_83_19402" result="shape"/>
</filter>
</defs>
</svg>
