<svg width="398" height="350" viewBox="0 0 398 350" fill="none" xmlns="http://www.w3.org/2000/svg">
<g filter="url(#filter0_d_83_19407)">
<path d="M56.4062 136.719H94.6875V235.156H67.3438C65.8933 235.156 64.5024 235.732 63.4768 236.758C62.4512 237.783 61.875 239.174 61.875 240.625C61.875 242.075 62.4512 243.466 63.4768 244.492C64.5024 245.517 65.8933 246.094 67.3438 246.094H329.844C331.294 246.094 332.685 245.517 333.711 244.492C334.736 243.466 335.312 242.075 335.312 240.625C335.312 239.174 334.736 237.783 333.711 236.758C332.685 235.732 331.294 235.156 329.844 235.156H302.5V136.719H340.781C341.974 136.721 343.135 136.334 344.087 135.616C345.039 134.898 345.73 133.888 346.055 132.741C346.38 131.594 346.322 130.371 345.888 129.261C345.454 128.15 344.669 127.211 343.652 126.588L201.465 39.0877C200.602 38.5554 199.608 38.2734 198.594 38.2734C197.58 38.2734 196.586 38.5554 195.723 39.0877L53.5352 126.588C52.5185 127.211 51.7335 128.15 51.2997 129.261C50.8659 130.371 50.8071 131.594 51.1323 132.741C51.4574 133.888 52.1487 134.898 53.1008 135.616C54.053 136.334 55.2137 136.721 56.4062 136.719ZM105.625 136.719H160.312V235.156H105.625V136.719ZM225.938 136.719V235.156H171.25V136.719H225.938ZM291.562 235.156H236.875V136.719H291.562V235.156ZM198.594 50.1756L321.463 125.781H75.7246L198.594 50.1756ZM357.188 284.375C357.188 285.825 356.611 287.216 355.586 288.242C354.56 289.267 353.169 289.844 351.719 289.844H45.4688C44.0183 289.844 42.6273 289.267 41.6018 288.242C40.5762 287.216 40 285.825 40 284.375C40 282.924 40.5762 281.533 41.6018 280.508C42.6273 279.482 44.0183 278.906 45.4688 278.906H351.719C353.169 278.906 354.56 279.482 355.586 280.508C356.611 281.533 357.188 282.924 357.188 284.375Z" fill="white"/>
</g>
<defs>
<filter id="filter0_d_83_19407" x="-16.4062" y="-36" width="430" height="430" filterUnits="userSpaceOnUse" color-interpolation-filters="sRGB">
<feFlood flood-opacity="0" result="BackgroundImageFix"/>
<feColorMatrix in="SourceAlpha" type="matrix" values="0 0 0 0 0 0 0 0 0 0 0 0 0 0 0 0 0 0 127 0" result="hardAlpha"/>
<feOffset dy="4"/>
<feGaussianBlur stdDeviation="20"/>
<feComposite in2="hardAlpha" operator="out"/>
<feColorMatrix type="matrix" values="0 0 0 0 0 0 0 0 0 0.922353 0 0 0 0 0.988235 0 0 0 1 0"/>
<feBlend mode="normal" in2="BackgroundImageFix" result="effect1_dropShadow_83_19407"/>
<feBlend mode="normal" in="SourceGraphic" in2="effect1_dropShadow_83_19407" result="shape"/>
</filter>
</defs>
</svg>
