<svg width="412" height="350" viewBox="0 0 412 350" fill="none" xmlns="http://www.w3.org/2000/svg">
<g filter="url(#filter0_d_83_19405)">
<path d="M189.223 296.68C188.92 297.855 188.234 298.896 187.274 299.639C186.313 300.381 185.133 300.783 183.919 300.781C183.458 300.783 182.999 300.728 182.552 300.617L138.802 289.68C138.193 289.529 137.615 289.274 137.093 288.928L104.28 267.053C103.682 266.654 103.169 266.142 102.769 265.545C102.369 264.948 102.091 264.278 101.95 263.573C101.809 262.868 101.808 262.143 101.948 261.438C102.087 260.733 102.364 260.063 102.763 259.465C103.568 258.257 104.819 257.419 106.242 257.134C106.947 256.994 107.672 256.993 108.377 257.132C109.082 257.272 109.753 257.549 110.35 257.947L142.37 279.303L185.286 290.008C185.983 290.186 186.638 290.5 187.214 290.933C187.789 291.365 188.274 291.906 188.64 292.526C189.006 293.146 189.246 293.832 189.346 294.545C189.446 295.257 189.404 295.983 189.223 296.68ZM370.745 164.404C370.073 166.448 369.002 168.338 367.594 169.965C366.186 171.591 364.468 172.922 362.542 173.879L329.374 190.476L253.44 266.41C252.765 267.066 251.932 267.536 251.022 267.776C250.112 268.015 249.155 268.016 248.245 267.777L160.745 245.902C160.075 245.74 159.443 245.447 158.886 245.041L82.6512 190.641L49.0731 173.838C47.1456 172.875 45.4267 171.541 44.0145 169.914C42.6024 168.286 41.5246 166.397 40.8429 164.353C40.1611 162.309 39.8887 160.15 40.0411 158.001C40.1935 155.852 40.7679 153.753 41.7313 151.826L75.6922 83.9042C76.6553 81.9767 77.9887 80.2578 79.6162 78.8457C81.2436 77.4335 83.1333 76.3558 85.1774 75.674C87.2214 74.9922 89.3797 74.7198 91.529 74.8722C93.6783 75.0247 95.7766 75.599 97.7039 76.5624L129.778 92.5995L204.29 71.2987C205.274 71.0254 206.314 71.0254 207.298 71.2987L281.809 92.5995L313.884 76.5624C315.811 75.599 317.909 75.0247 320.059 74.8722C322.208 74.7198 324.366 74.9922 326.41 75.674C328.454 76.3558 330.344 77.4335 331.971 78.8457C333.599 80.2578 334.932 81.9767 335.895 83.9042L369.856 151.84C370.827 153.764 371.405 155.862 371.557 158.012C371.71 160.162 371.434 162.321 370.745 164.363V164.404ZM53.9539 164.062L83.034 178.596L121.889 100.885L92.8231 86.3515C92.1812 86.0291 91.4822 85.8364 90.7658 85.7842C90.0495 85.7321 89.3299 85.8216 88.6481 86.0476C87.9663 86.2735 87.3358 86.6316 86.7924 87.1013C86.249 87.571 85.8035 88.1432 85.4813 88.7851L51.5203 156.721C51.198 157.362 51.0053 158.062 50.9531 158.778C50.901 159.494 50.9904 160.214 51.2164 160.896C51.4424 161.577 51.8005 162.208 52.2702 162.751C52.7399 163.295 53.312 163.74 53.9539 164.062ZM296.028 208.264L249.845 171.267C224.511 194.182 191.356 197.941 164.177 180.578C162.1 179.261 160.345 177.495 159.043 175.408C157.741 173.322 156.925 170.97 156.655 168.526C156.384 166.082 156.667 163.608 157.481 161.288C158.296 158.967 159.621 156.86 161.36 155.121L223.841 94.5136C224.866 93.5183 226.24 92.9638 227.669 92.9687H243.309L205.794 82.2499L133.046 103.031L92.4676 184.201L164.382 235.566L247.862 256.443L296.028 208.264ZM319.434 184.857L278.979 103.906H229.884L169.057 162.914C168.491 163.482 168.06 164.17 167.798 164.928C167.535 165.685 167.447 166.493 167.54 167.289C167.627 168.118 167.9 168.918 168.338 169.628C168.775 170.338 169.367 170.94 170.069 171.391C189.141 183.572 219.014 187.031 245.661 160.18C246.613 159.222 247.885 158.651 249.233 158.575C250.581 158.499 251.909 158.925 252.962 159.769L303.835 200.512L319.434 184.857ZM360.054 156.721L326.106 88.7851C325.784 88.1432 325.339 87.571 324.795 87.1013C324.252 86.6316 323.621 86.2735 322.939 86.0476C322.258 85.8216 321.538 85.7321 320.822 85.7842C320.105 85.8364 319.406 86.0291 318.764 86.3515L289.698 100.885L328.554 178.596L357.634 164.062C358.276 163.74 358.848 163.295 359.317 162.751C359.787 162.208 360.145 161.577 360.371 160.896C360.597 160.214 360.687 159.494 360.634 158.778C360.582 158.062 360.39 157.362 360.067 156.721H360.054Z" fill="white"/>
</g>
<defs>
<filter id="filter0_d_83_19405" x="-9.2063" y="-36" width="430" height="430" filterUnits="userSpaceOnUse" color-interpolation-filters="sRGB">
<feFlood flood-opacity="0" result="BackgroundImageFix"/>
<feColorMatrix in="SourceAlpha" type="matrix" values="0 0 0 0 0 0 0 0 0 0 0 0 0 0 0 0 0 0 127 0" result="hardAlpha"/>
<feOffset dy="4"/>
<feGaussianBlur stdDeviation="20"/>
<feComposite in2="hardAlpha" operator="out"/>
<feColorMatrix type="matrix" values="0 0 0 0 0 0 0 0 0 0.922353 0 0 0 0 0.988235 0 0 0 1 0"/>
<feBlend mode="normal" in2="BackgroundImageFix" result="effect1_dropShadow_83_19405"/>
<feBlend mode="normal" in="SourceGraphic" in2="effect1_dropShadow_83_19405" result="shape"/>
</filter>
</defs>
</svg>
