<svg width="354" height="350" viewBox="0 0 354 350" fill="none" xmlns="http://www.w3.org/2000/svg">
<g filter="url(#filter0_d_83_19406)">
<path d="M297.031 60.1563H56.4062C52.055 60.1562 47.882 61.8848 44.8053 64.9615C41.7285 68.0383 40 72.2113 40 76.5625V273.438C40 277.789 41.7285 281.962 44.8053 285.038C47.882 288.115 52.055 289.844 56.4062 289.844H297.031C301.382 289.844 305.555 288.115 308.632 285.038C311.709 281.962 313.438 277.789 313.438 273.438V76.5625C313.438 72.2113 311.709 68.0383 308.632 64.9615C305.555 61.8848 301.382 60.1563 297.031 60.1563ZM302.5 273.438C302.5 274.888 301.924 276.279 300.898 277.304C299.873 278.33 298.482 278.906 297.031 278.906H56.4062C54.9558 278.906 53.5649 278.33 52.5393 277.304C51.5137 276.279 50.9375 274.888 50.9375 273.438V76.5625C50.9375 75.1121 51.5137 73.7211 52.5393 72.6955C53.5649 71.6699 54.9558 71.0938 56.4062 71.0938H297.031C298.482 71.0938 299.873 71.6699 300.898 72.6955C301.924 73.7211 302.5 75.1121 302.5 76.5625V273.438ZM105.625 114.844C105.625 117.007 104.984 119.122 103.782 120.92C102.58 122.719 100.872 124.121 98.8731 124.949C96.8745 125.777 94.6754 125.993 92.5537 125.571C90.432 125.149 88.4832 124.107 86.9535 122.578C85.4239 121.048 84.3822 119.099 83.9602 116.978C83.5381 114.856 83.7547 112.657 84.5826 110.658C85.4104 108.66 86.8123 106.951 88.611 105.75C90.4096 104.548 92.5243 103.906 94.6875 103.906C97.5883 103.906 100.37 105.059 102.421 107.11C104.473 109.161 105.625 111.943 105.625 114.844ZM160.312 114.844C160.312 117.007 159.671 119.122 158.469 120.92C157.267 122.719 155.559 124.121 153.561 124.949C151.562 125.777 149.363 125.993 147.241 125.571C145.12 125.149 143.171 124.107 141.641 122.578C140.111 121.048 139.07 119.099 138.648 116.978C138.226 114.856 138.442 112.657 139.27 110.658C140.098 108.66 141.5 106.951 143.298 105.75C145.097 104.548 147.212 103.906 149.375 103.906C152.276 103.906 155.058 105.059 157.109 107.11C159.16 109.161 160.312 111.943 160.312 114.844Z" fill="white"/>
</g>
<defs>
<filter id="filter0_d_83_19406" x="-38.2812" y="-36" width="430" height="430" filterUnits="userSpaceOnUse" color-interpolation-filters="sRGB">
<feFlood flood-opacity="0" result="BackgroundImageFix"/>
<feColorMatrix in="SourceAlpha" type="matrix" values="0 0 0 0 0 0 0 0 0 0 0 0 0 0 0 0 0 0 127 0" result="hardAlpha"/>
<feOffset dy="4"/>
<feGaussianBlur stdDeviation="20"/>
<feComposite in2="hardAlpha" operator="out"/>
<feColorMatrix type="matrix" values="0 0 0 0 0 0 0 0 0 0.922353 0 0 0 0 0.988235 0 0 0 1 0"/>
<feBlend mode="normal" in2="BackgroundImageFix" result="effect1_dropShadow_83_19406"/>
<feBlend mode="normal" in="SourceGraphic" in2="effect1_dropShadow_83_19406" result="shape"/>
</filter>
</defs>
</svg>
