<svg width="398" height="350" viewBox="0 0 398 350" fill="none" xmlns="http://www.w3.org/2000/svg">
<g filter="url(#filter0_d_83_19404)">
<path d="M356.684 54.8517C356.603 53.5163 356.035 52.2569 355.087 51.3121C354.14 50.3673 352.879 49.8026 351.544 49.7248C282.842 45.6232 227.895 66.2677 204.544 104.809C188.63 131.086 189.272 162.121 206.239 192.596C194.265 205.749 186.359 222.089 183.475 239.641L151.36 207.526C163.159 185.651 163.405 163.324 151.934 144.375C134.954 116.334 95.1686 101.35 45.4713 104.262C44.1427 104.346 42.8903 104.911 41.9489 105.853C41.0076 106.794 40.4419 108.047 40.358 109.375C37.4459 159.045 52.4303 198.83 80.4713 215.811C89.4711 221.336 99.8251 224.26 110.385 224.26C122.042 224.062 133.465 220.96 143.622 215.236L182.19 253.846C182.19 254.229 182.19 254.611 182.19 254.994V295.313C182.19 296.763 182.766 298.154 183.792 299.18C184.817 300.205 186.208 300.781 187.659 300.781C189.109 300.781 190.5 300.205 191.526 299.18C192.551 298.154 193.128 296.763 193.128 295.313V254.994C193.076 234.804 200.526 215.315 214.032 200.307C229.741 209.002 245.573 213.377 260.844 213.377C275.231 213.38 289.337 209.4 301.6 201.879C340.128 178.514 360.731 123.567 356.684 54.8517ZM86.1315 206.445C62.5202 192.172 49.5729 158.17 51.0495 114.953C94.2662 113.477 128.268 126.424 142.542 150.035C151.401 164.678 151.551 181.986 143.171 199.377L104.014 160.194C102.974 159.251 101.611 158.744 100.208 158.779C98.8043 158.814 97.4679 159.386 96.4753 160.379C95.4827 161.372 94.9098 162.708 94.8752 164.112C94.8406 165.515 95.3471 166.878 96.2897 167.918L135.487 207.115C118.083 215.496 100.774 215.346 86.1315 206.445ZM295.926 192.5C273.983 205.789 247.952 205.611 221.989 192.158L300.903 113.231C301.886 112.198 302.427 110.821 302.41 109.395C302.393 107.969 301.82 106.606 300.812 105.597C299.804 104.587 298.442 104.012 297.016 103.992C295.59 103.973 294.213 104.511 293.178 105.492L214.251 184.42C200.797 158.444 200.579 132.467 213.909 110.483C234.567 76.3029 283.745 57.8048 346.02 60.3888C348.618 122.664 330.051 171.842 295.926 192.5Z" fill="white"/>
</g>
<defs>
<filter id="filter0_d_83_19404" x="-16.4036" y="-36" width="430" height="430" filterUnits="userSpaceOnUse" color-interpolation-filters="sRGB">
<feFlood flood-opacity="0" result="BackgroundImageFix"/>
<feColorMatrix in="SourceAlpha" type="matrix" values="0 0 0 0 0 0 0 0 0 0 0 0 0 0 0 0 0 0 127 0" result="hardAlpha"/>
<feOffset dy="4"/>
<feGaussianBlur stdDeviation="20"/>
<feComposite in2="hardAlpha" operator="out"/>
<feColorMatrix type="matrix" values="0 0 0 0 0 0 0 0 0 0.922353 0 0 0 0 0.988235 0 0 0 1 0"/>
<feBlend mode="normal" in2="BackgroundImageFix" result="effect1_dropShadow_83_19404"/>
<feBlend mode="normal" in="SourceGraphic" in2="effect1_dropShadow_83_19404" result="shape"/>
</filter>
</defs>
</svg>
