<svg width="215" height="200" viewBox="0 0 215 200" fill="none" xmlns="http://www.w3.org/2000/svg">
<g filter="url(#filter0_d_83_19418)">
<path d="M191.609 43.75V93.75C191.609 94.5788 191.28 95.3737 190.694 95.9597C190.108 96.5458 189.313 96.875 188.484 96.875C187.655 96.875 186.86 96.5458 186.274 95.9597C185.688 95.3737 185.359 94.5788 185.359 93.75V51.2969L115.695 120.961C115.405 121.251 115.06 121.482 114.681 121.639C114.301 121.797 113.895 121.877 113.484 121.877C113.073 121.877 112.667 121.797 112.287 121.639C111.908 121.482 111.563 121.251 111.273 120.961L82.2339 91.9219L28.1949 145.961C27.6085 146.547 26.8132 146.877 25.9839 146.877C25.1547 146.877 24.3594 146.547 23.773 145.961C23.1866 145.375 22.8572 144.579 22.8572 143.75C22.8572 142.921 23.1866 142.125 23.773 141.539L80.023 85.2891C80.3132 84.9985 80.6579 84.768 81.0372 84.6107C81.4166 84.4535 81.8232 84.3725 82.2339 84.3725C82.6446 84.3725 83.0512 84.4535 83.4306 84.6107C83.81 84.768 84.1546 84.9985 84.4449 85.2891L113.484 114.328L180.937 46.875H138.484C137.655 46.875 136.86 46.5458 136.274 45.9597C135.688 45.3737 135.359 44.5788 135.359 43.75C135.359 42.9212 135.688 42.1263 136.274 41.5403C136.86 40.9542 137.655 40.625 138.484 40.625H188.484C189.313 40.625 190.108 40.9542 190.694 41.5403C191.28 42.1263 191.609 42.9212 191.609 43.75Z" fill="white"/>
</g>
<defs>
<filter id="filter0_d_83_19418" x="-15.6233" y="-20.5714" width="245.714" height="245.714" filterUnits="userSpaceOnUse" color-interpolation-filters="sRGB">
<feFlood flood-opacity="0" result="BackgroundImageFix"/>
<feColorMatrix in="SourceAlpha" type="matrix" values="0 0 0 0 0 0 0 0 0 0 0 0 0 0 0 0 0 0 127 0" result="hardAlpha"/>
<feOffset dy="2.28571"/>
<feGaussianBlur stdDeviation="11.4286"/>
<feComposite in2="hardAlpha" operator="out"/>
<feColorMatrix type="matrix" values="0 0 0 0 0 0 0 0 0 0.922353 0 0 0 0 0.988235 0 0 0 1 0"/>
<feBlend mode="normal" in2="BackgroundImageFix" result="effect1_dropShadow_83_19418"/>
<feBlend mode="normal" in="SourceGraphic" in2="effect1_dropShadow_83_19418" result="shape"/>
</filter>
</defs>
</svg>
