<svg width="227" height="200" viewBox="0 0 227 200" fill="none" xmlns="http://www.w3.org/2000/svg">
<g filter="url(#filter0_d_83_19417)">
<path d="M204.107 96.8748C204.097 88.8567 201.719 81.0203 197.271 74.3488C192.823 67.6774 186.505 62.4682 179.107 59.3748V56.2498C179.102 48.4082 176.415 40.804 171.494 34.6991C166.572 28.5942 159.711 24.3555 152.049 22.6863C144.387 21.0171 136.385 22.0177 129.37 25.5221C122.355 29.0266 116.749 34.8242 113.482 41.9529C110.215 34.8242 104.609 29.0266 97.5943 25.5221C90.5793 22.0177 82.5769 21.0171 74.915 22.6863C67.253 24.3555 60.3921 28.5942 55.4705 34.6991C50.5489 40.804 47.8626 48.4082 47.8572 56.2498V59.3748C40.4537 62.4596 34.129 67.6668 29.6801 74.3401C25.2312 81.0135 22.8572 88.8544 22.8572 96.8748C22.8572 104.895 25.2312 112.736 29.6801 119.41C34.129 126.083 40.4537 131.29 47.8572 134.375V137.5C47.8626 145.341 50.5489 152.946 55.4705 159.051C60.3921 165.155 67.253 169.394 74.915 171.063C82.5769 172.733 90.5793 171.732 97.5943 168.227C104.609 164.723 110.215 158.925 113.482 151.797C116.749 158.925 122.355 164.723 129.37 168.227C136.385 171.732 144.387 172.733 152.049 171.063C159.711 169.394 166.572 165.155 171.494 159.051C176.415 152.946 179.102 145.341 179.107 137.5V134.375C186.506 131.284 192.827 126.075 197.275 119.403C201.723 112.731 204.1 104.894 204.107 96.8748ZM82.2322 165.625C74.773 165.625 67.6193 162.662 62.3448 157.387C57.0703 152.113 54.1072 144.959 54.1072 137.5V136.398C57.1789 137.128 60.325 137.497 63.4822 137.5H69.7322C70.561 137.5 71.3558 137.171 71.9419 136.585C72.5279 135.998 72.8572 135.204 72.8572 134.375C72.8572 133.546 72.5279 132.751 71.9419 132.165C71.3558 131.579 70.561 131.25 69.7322 131.25H63.4822C55.3666 131.259 47.5095 128.397 41.3017 123.169C35.0938 117.942 30.9357 110.687 29.5633 102.688C28.1909 94.6892 29.6927 86.4629 33.803 79.4652C37.9132 72.4674 44.3668 67.1496 52.0212 64.4529C52.6308 64.238 53.1588 63.8394 53.5324 63.3119C53.906 62.7844 54.1068 62.154 54.1072 61.5076V56.2498C54.1072 48.7906 57.0703 41.6369 62.3448 36.3624C67.6193 31.088 74.773 28.1248 82.2322 28.1248C89.6914 28.1248 96.8451 31.088 102.12 36.3624C107.394 41.6369 110.357 48.7906 110.357 56.2498V117.773C107.19 113.253 102.98 109.562 98.0847 107.012C93.1893 104.462 87.7518 103.129 82.2322 103.125C81.4034 103.125 80.6085 103.454 80.0225 104.04C79.4364 104.626 79.1072 105.421 79.1072 106.25C79.1072 107.079 79.4364 107.873 80.0225 108.46C80.6085 109.046 81.4034 109.375 82.2322 109.375C89.6914 109.375 96.8451 112.338 102.12 117.612C107.394 122.887 110.357 130.041 110.357 137.5C110.357 144.959 107.394 152.113 102.12 157.387C96.8451 162.662 89.6914 165.625 82.2322 165.625ZM163.482 131.25H157.232C156.403 131.25 155.609 131.579 155.022 132.165C154.436 132.751 154.107 133.546 154.107 134.375C154.107 135.204 154.436 135.998 155.022 136.585C155.609 137.171 156.403 137.5 157.232 137.5H163.482C166.639 137.497 169.785 137.128 172.857 136.398V137.5C172.857 143.062 171.208 148.5 168.117 153.125C165.027 157.75 160.634 161.355 155.495 163.484C150.356 165.613 144.701 166.17 139.245 165.084C133.79 163.999 128.778 161.321 124.845 157.387C120.911 153.454 118.233 148.442 117.148 142.987C116.062 137.531 116.619 131.876 118.748 126.737C120.877 121.598 124.482 117.205 129.107 114.115C133.732 111.024 139.17 109.375 144.732 109.375C145.561 109.375 146.356 109.046 146.942 108.46C147.528 107.873 147.857 107.079 147.857 106.25C147.857 105.421 147.528 104.626 146.942 104.04C146.356 103.454 145.561 103.125 144.732 103.125C139.213 103.129 133.775 104.462 128.88 107.012C123.984 109.562 119.775 113.253 116.607 117.773V56.2498C116.607 48.7906 119.57 41.6369 124.845 36.3624C130.119 31.088 137.273 28.1248 144.732 28.1248C152.191 28.1248 159.345 31.088 164.62 36.3624C169.894 41.6369 172.857 48.7906 172.857 56.2498V61.5076C172.858 62.154 173.058 62.7844 173.432 63.3119C173.806 63.8394 174.333 64.238 174.943 64.4529C182.598 67.1496 189.051 72.4674 193.161 79.4652C197.272 86.4629 198.773 94.6892 197.401 102.688C196.029 110.687 191.871 117.942 185.663 123.169C179.455 128.397 171.598 131.259 163.482 131.25ZM172.857 87.4998C172.857 88.3286 172.528 89.1235 171.942 89.7095C171.356 90.2956 170.561 90.6248 169.732 90.6248H166.607C159.977 90.6248 153.618 87.9909 148.93 83.3025C144.241 78.6141 141.607 72.2552 141.607 65.6248V62.4998C141.607 61.671 141.936 60.8762 142.522 60.2901C143.109 59.7041 143.903 59.3748 144.732 59.3748C145.561 59.3748 146.356 59.7041 146.942 60.2901C147.528 60.8762 147.857 61.671 147.857 62.4998V65.6248C147.857 70.5976 149.833 75.3668 153.349 78.8831C156.865 82.3994 161.634 84.3748 166.607 84.3748H169.732C170.561 84.3748 171.356 84.7041 171.942 85.2901C172.528 85.8762 172.857 86.671 172.857 87.4998ZM85.3572 65.6248C85.3572 72.2552 82.7233 78.6141 78.0348 83.3025C73.3464 87.9909 66.9876 90.6248 60.3572 90.6248H57.2322C56.4034 90.6248 55.6085 90.2956 55.0225 89.7095C54.4364 89.1235 54.1072 88.3286 54.1072 87.4998C54.1072 86.671 54.4364 85.8762 55.0225 85.2901C55.6085 84.7041 56.4034 84.3748 57.2322 84.3748H60.3572C65.33 84.3748 70.0991 82.3994 73.6154 78.8831C77.1317 75.3668 79.1072 70.5976 79.1072 65.6248V62.4998C79.1072 61.671 79.4364 60.8762 80.0225 60.2901C80.6085 59.7041 81.4034 59.3748 82.2322 59.3748C83.061 59.3748 83.8558 59.7041 84.4419 60.2901C85.0279 60.8762 85.3572 61.671 85.3572 62.4998V65.6248Z" fill="white"/>
</g>
<defs>
<filter id="filter0_d_83_19417" x="-9.37496" y="-20.5714" width="245.714" height="245.714" filterUnits="userSpaceOnUse" color-interpolation-filters="sRGB">
<feFlood flood-opacity="0" result="BackgroundImageFix"/>
<feColorMatrix in="SourceAlpha" type="matrix" values="0 0 0 0 0 0 0 0 0 0 0 0 0 0 0 0 0 0 127 0" result="hardAlpha"/>
<feOffset dy="2.28571"/>
<feGaussianBlur stdDeviation="11.4286"/>
<feComposite in2="hardAlpha" operator="out"/>
<feColorMatrix type="matrix" values="0 0 0 0 0 0 0 0 0 0.922353 0 0 0 0 0.988235 0 0 0 1 0"/>
<feBlend mode="normal" in2="BackgroundImageFix" result="effect1_dropShadow_83_19417"/>
<feBlend mode="normal" in="SourceGraphic" in2="effect1_dropShadow_83_19417" result="shape"/>
</filter>
</defs>
</svg>
