<svg width="215" height="200" viewBox="0 0 215 200" fill="none" xmlns="http://www.w3.org/2000/svg">
<g filter="url(#filter0_d_83_19416)">
<path d="M166.787 65.2358C158.937 57.375 149.604 51.1516 139.33 46.9271C129.055 42.7025 118.044 40.5609 106.935 40.6265C60.5759 40.7905 22.8572 79.0327 22.8572 125.884V143.751C22.8572 146.238 23.8449 148.622 25.6031 150.381C27.3612 152.139 29.7458 153.126 32.2322 153.126H182.232C184.719 153.126 187.103 152.139 188.861 150.381C190.619 148.622 191.607 146.238 191.607 143.751V125.001C191.639 113.891 189.461 102.886 185.2 92.6257C180.939 82.3653 174.68 73.0548 166.787 65.2358ZM185.357 143.751C185.357 144.58 185.028 145.375 184.442 145.961C183.856 146.547 183.061 146.876 182.232 146.876H94.615L141.006 83.0874C141.273 82.758 141.47 82.3776 141.586 81.9693C141.702 81.5611 141.733 81.1336 141.678 80.7129C141.623 80.2922 141.483 79.8871 141.266 79.5223C141.049 79.1575 140.761 78.8407 140.418 78.5911C140.075 78.3415 139.684 78.1643 139.271 78.0705C138.857 77.9766 138.428 77.968 138.011 78.0451C137.594 78.1223 137.197 78.2836 136.844 78.5192C136.491 78.7548 136.19 79.0597 135.959 79.4155L86.9197 146.876H32.2322C31.4034 146.876 30.6085 146.547 30.0225 145.961C29.4364 145.375 29.1072 144.58 29.1072 143.751V125.884C29.108 122.455 29.3272 119.028 29.7634 115.626H50.9822C51.811 115.626 52.6058 115.297 53.1919 114.711C53.7779 114.125 54.1072 113.33 54.1072 112.501C54.1072 111.673 53.7779 110.878 53.1919 110.292C52.6058 109.706 51.811 109.376 50.9822 109.376H30.8337C38.1619 74.7358 68.0447 48.3843 104.107 46.9468V68.7515C104.107 69.5803 104.436 70.3751 105.022 70.9612C105.609 71.5472 106.403 71.8765 107.232 71.8765C108.061 71.8765 108.856 71.5472 109.442 70.9612C110.028 70.3751 110.357 69.5803 110.357 68.7515V46.939C127.814 47.6452 144.532 54.1778 157.842 65.4947C171.153 76.8115 180.29 92.2604 183.795 109.376H163.482C162.653 109.376 161.859 109.706 161.272 110.292C160.686 110.878 160.357 111.673 160.357 112.501C160.357 113.33 160.686 114.125 161.272 114.711C161.859 115.297 162.653 115.626 163.482 115.626H184.802C185.172 118.738 185.357 121.868 185.357 125.001V143.751Z" fill="white"/>
</g>
<defs>
<filter id="filter0_d_83_19416" x="-15.625" y="-20.5714" width="245.714" height="245.714" filterUnits="userSpaceOnUse" color-interpolation-filters="sRGB">
<feFlood flood-opacity="0" result="BackgroundImageFix"/>
<feColorMatrix in="SourceAlpha" type="matrix" values="0 0 0 0 0 0 0 0 0 0 0 0 0 0 0 0 0 0 127 0" result="hardAlpha"/>
<feOffset dy="2.28571"/>
<feGaussianBlur stdDeviation="11.4286"/>
<feComposite in2="hardAlpha" operator="out"/>
<feColorMatrix type="matrix" values="0 0 0 0 0 0 0 0 0 0.922353 0 0 0 0 0.988235 0 0 0 1 0"/>
<feBlend mode="normal" in2="BackgroundImageFix" result="effect1_dropShadow_83_19416"/>
<feBlend mode="normal" in="SourceGraphic" in2="effect1_dropShadow_83_19416" result="shape"/>
</filter>
</defs>
</svg>
