<svg width="256" height="256" viewBox="0 0 256 256" fill="none" xmlns="http://www.w3.org/2000/svg">
<rect width="256" height="256" rx="128" fill="black" fill-opacity="0.4"/>
<path d="M127.636 86.5558H128.335C129.967 86.5144 131.524 86.7923 132.947 87.633C135.087 88.9672 136.679 90.9038 138.455 92.6349C140.692 94.8155 142.89 97.0359 145.103 99.2414C147.421 101.553 149.741 103.862 152.062 106.17C154.25 108.348 156.439 110.525 158.628 112.7C160.924 114.981 163.22 117.263 165.514 119.546C165.952 119.98 166.372 120.431 166.817 120.859C168.178 122.152 169 123.75 169.395 125.556C170.163 129.074 169.326 132.171 166.827 134.801C166.763 134.869 166.693 134.931 166.615 134.984C166.272 135.268 165.95 135.577 165.651 135.907C165.601 135.966 165.546 136.02 165.488 136.071C165.277 136.289 165.011 136.443 164.792 136.652C164.759 136.689 164.723 136.723 164.685 136.754C164.502 136.875 164.333 137.015 164.18 137.171C164.13 137.226 164.074 137.276 164.013 137.318C163.848 137.466 163.632 137.55 163.491 137.729C163.375 137.859 163.245 137.977 163.104 138.08C162.895 138.219 162.702 138.38 162.528 138.56C160.954 139.86 159.3 141.056 157.636 142.237C157.278 142.515 156.843 142.68 156.511 142.994C156.457 143.047 156.397 143.093 156.332 143.133C156.02 143.288 155.728 143.483 155.465 143.711C155.345 143.813 155.214 143.901 155.073 143.972C148.742 148.109 142.109 151.636 134.948 154.098C139.598 152.579 144.228 151.008 148.66 148.908C150.559 148.009 152.45 147.097 154.297 146.098C154.513 145.981 154.745 145.909 154.968 145.813C155.109 145.752 155.258 145.666 155.372 145.821C155.477 145.965 155.377 146.107 155.292 146.23C155.175 146.399 154.968 146.487 154.87 146.676C151.511 150.054 148.116 153.399 144.743 156.765C141.608 159.893 138.471 163.02 135.331 166.143C135.233 166.256 135.12 166.356 134.997 166.441C134.586 166.865 134.128 167.241 133.632 167.564C133.515 167.661 133.386 167.743 133.247 167.806C133.105 167.86 132.975 167.945 132.867 168.052C132.545 168.24 132.203 168.393 131.849 168.51C131.535 168.636 131.197 168.704 130.909 168.895C130.338 169.11 129.732 169.085 129.14 169.121C128.097 169.181 127.052 169.163 126.012 169.069C125.084 168.988 124.24 168.632 123.413 168.234C122.887 167.846 122.293 167.557 121.771 167.16C121.598 167.095 121.452 166.974 121.356 166.817C121.291 166.658 121.166 166.531 121.009 166.462C120.918 166.416 120.837 166.353 120.771 166.276C119.61 165.121 118.455 163.961 117.291 162.811C116.55 162.079 115.805 161.347 115.064 160.614C114.325 159.882 113.59 159.141 112.854 158.403C112.106 157.653 111.353 156.905 110.595 156.162C109.853 155.432 109.104 154.707 108.388 153.95C107.774 153.302 107.087 152.728 106.478 152.074C103.034 148.713 99.6481 145.294 96.2314 141.905C94.0508 139.743 91.8735 137.577 89.7012 135.406C88.7001 134.418 87.8712 133.271 87.248 132.012C86.8102 131.119 86.708 130.165 86.5449 129.216V128.431C86.638 127.987 86.638 127.529 86.5449 127.085V126.525C86.6867 125.441 86.7864 124.347 87.3652 123.376C87.6373 122.946 87.9067 122.515 88.167 122.077C88.1972 121.975 88.2549 121.881 88.334 121.809C88.7473 121.354 89.1614 120.898 89.6025 120.469C90.5125 119.544 91.5244 118.732 92.5156 117.899C92.9194 117.544 93.3281 117.196 93.7578 116.872C94.0052 116.698 94.2406 116.507 94.4619 116.301C95.4181 115.57 96.3686 114.832 97.3662 114.156C98.0081 113.631 98.785 113.286 99.3682 112.681C100.494 111.992 101.558 111.209 102.703 110.549C104.659 109.304 106.645 108.109 108.703 107.041C112.727 104.954 116.786 102.94 121.119 101.54C115.992 103.2 110.913 104.981 106.062 107.361C104.989 107.888 103.879 108.341 102.856 108.967C102.395 109.19 101.931 109.408 101.483 109.661C101.26 109.788 101.028 109.917 100.761 109.764C100.609 109.518 100.765 109.363 100.926 109.21C101.138 109.013 101.335 108.801 101.518 108.576C108.056 102.06 114.602 95.5508 121.157 89.05C122.921 87.3102 125.116 86.4621 127.636 86.5558ZM132.979 154.726C132.836 154.789 132.683 154.829 132.526 154.844C132.32 154.947 132.1 155.021 131.873 155.063C131.871 155.063 131.869 155.064 131.867 155.065C132.093 155.025 132.313 154.953 132.518 154.85C132.676 154.831 132.832 154.789 132.979 154.728C133.064 154.71 133.147 154.688 133.229 154.663C133.146 154.683 133.061 154.699 132.979 154.726ZM126.555 120.862C126.45 120.564 126.265 120.572 126.069 120.798C125.952 120.84 125.977 120.939 125.976 121.028C125.931 121.192 125.969 121.397 125.754 121.48V121.482C125.655 121.617 125.751 121.849 125.535 121.927C125.001 122.915 124.509 123.924 124.062 124.954C124.056 125.189 124 125.419 123.896 125.63C123.793 125.841 123.645 126.026 123.462 126.174C122.088 128.961 120.713 131.748 119.306 134.603C119.883 134.603 120.367 134.606 120.851 134.602C121.45 134.596 122.183 134.791 122.611 134.517C123.035 134.245 123.179 133.509 123.396 132.957C123.524 132.63 123.721 132.57 124.035 132.574C125.217 132.589 126.412 132.688 127.578 132.552C128.894 132.398 129.663 132.814 129.931 134.111C129.966 134.217 130.011 134.32 130.066 134.417C130.081 134.471 130.114 134.519 130.159 134.552C130.204 134.585 130.259 134.603 130.314 134.602C131.391 134.6 132.468 134.601 133.625 134.601C132.881 133.094 132.185 131.674 131.48 130.259C129.999 127.288 128.516 124.317 127.034 121.347C126.92 121.313 126.815 121.251 126.731 121.166C126.648 121.082 126.587 120.977 126.555 120.862ZM138.215 120.271C137.881 120.335 137.976 120.723 137.923 120.971C137.663 122.173 137.427 123.381 137.183 124.586C136.537 127.783 135.888 130.979 135.235 134.174C135.177 134.459 135.187 134.619 135.562 134.61C136.481 134.585 137.401 134.594 138.32 134.604C138.571 134.606 138.674 134.531 138.721 134.269C138.887 133.333 139.086 132.403 139.273 131.471C139.495 130.365 139.718 129.259 139.959 128.059C140.777 129.253 141.533 130.359 142.29 131.464C142.579 131.535 142.667 131.738 142.654 132.009L142.656 132.012C143.011 132.271 143.204 131.95 143.444 131.795L143.443 131.799C143.519 131.702 143.458 131.57 143.509 131.48C143.693 131.154 143.505 130.698 143.882 130.444C143.925 130.334 143.968 130.223 144.012 130.112C144.005 129.906 144.077 129.704 144.214 129.548C144.301 129.422 144.348 129.272 144.348 129.119C144.411 128.925 144.409 128.708 144.552 128.541C144.615 128.318 144.638 128.068 144.757 127.878C144.846 127.734 144.661 127.44 144.97 127.444C145.184 127.446 145.183 127.678 145.251 127.818C146.302 129.961 147.348 132.107 148.391 134.254C148.481 134.441 148.533 134.612 148.812 134.608C149.859 134.591 150.906 134.602 151.993 134.602C151.97 134.519 151.943 134.437 151.911 134.357C149.68 129.758 147.444 125.161 145.205 120.566C145.153 120.459 145.149 120.282 144.98 120.274C144.76 120.262 144.784 120.475 144.742 120.597C144.111 122.43 143.49 124.266 142.864 126.101C142.759 126.408 142.643 126.711 142.512 127.074C142.386 126.882 142.299 126.762 142.224 126.635C141.079 124.708 139.942 122.777 138.786 120.858C138.646 120.625 138.602 120.196 138.215 120.271ZM110.561 120.239C110.149 120.225 109.941 120.343 109.759 120.727C108.455 123.465 107.11 126.184 105.801 128.92C105.206 130.163 104.486 131.354 104.088 132.684C103.706 133.957 104.182 134.59 105.514 134.598C107.221 134.607 108.93 134.601 110.638 134.601C112.871 134.603 115.105 134.602 117.338 134.599C117.54 134.599 117.819 134.691 117.734 134.287C117.341 132.389 116.952 130.49 116.566 128.591C116.523 128.38 116.438 128.281 116.195 128.283C114.919 128.295 113.643 128.291 112.367 128.284C112.132 128.283 112.029 128.329 112.092 128.601C112.205 129.072 112.29 129.55 112.347 130.031C112.398 130.508 112.558 130.789 113.103 130.692C113.278 130.66 113.515 130.635 113.542 130.903C113.584 131.323 113.796 131.722 113.693 132.154C113.685 132.184 113.558 132.198 113.487 132.197C111.874 132.19 110.259 132.202 108.646 132.157C107.994 132.139 107.82 131.85 108.071 131.28C108.534 130.233 109.039 129.203 109.526 128.166C109.754 127.919 109.617 127.486 109.972 127.304L110.133 126.982C110.002 126.823 110.198 126.828 110.245 126.758C111.314 124.612 112.383 122.466 113.487 120.25C112.433 120.25 111.496 120.272 110.561 120.239ZM128.101 129.872C128.205 130.121 128.117 130.202 127.859 130.2C126.885 130.193 125.91 130.194 124.936 130.201C124.659 130.203 124.556 130.149 124.687 129.85C125.251 128.555 125.798 127.252 126.406 125.822C127.011 127.269 127.555 128.571 128.101 129.872ZM123.893 100.681H123.895C123.961 100.659 123.863 100.692 123.934 100.668C123.921 100.67 123.909 100.677 123.893 100.681Z" fill="#F1F1F1"/>
</svg>
