<svg width="1440" height="510" viewBox="0 0 1440 510" fill="none" xmlns="http://www.w3.org/2000/svg">
<g clip-path="url(#clip0_83_19389)">
<g clip-path="url(#clip1_83_19389)">
<path d="M1342.5 524V609H1257V524H1342.5ZM1255 524V609H1166.5V524H1255ZM1164.5 524V609H1077V524H1164.5ZM1075 524V609H989V524H1075ZM987 524V609H901.5V524H987ZM899.5 524V609H811V524H899.5ZM809 524V609H722V524H809ZM720 524V609H633V524H720ZM631 524V609H543V524H631ZM541 524V609H453.5V524H541ZM451.5 524V609H366.5V524H451.5ZM364.5 524V609H278.5V524H364.5ZM276.5 524V609H188V524H276.5ZM186 524V609H98V524H186ZM1342.5 439V522H1257V439H1342.5ZM1255 439V522H1166.5V439H1255ZM1164.5 439V522H1077V439H1164.5ZM1075 439V522H989V439H1075ZM987 439V522H901.5V439H987ZM899.5 439V522H811V439H899.5ZM809 439V522H722V439H809ZM720 439V522H633V439H720ZM631 439V522H543V439H631ZM541 439V522H453.5V439H541ZM451.5 439V522H366.5V439H451.5ZM364.5 439V522H278.5V439H364.5ZM276.5 439V522H188V439H276.5ZM186 439V522H98V439H186ZM1342.5 355V437H1257V355H1342.5ZM1255 355V437H1166.5V355H1255ZM1164.5 355V437H1077V355H1164.5ZM1075 355V437H989V355H1075ZM987 355V437H901.5V355H987ZM899.5 355V437H811V355H899.5ZM809 355V437H722V355H809ZM720 355V437H633V355H720ZM631 355V437H543V355H631ZM541 355V437H453.5V355H541ZM451.5 355V437H366.5V355H451.5ZM364.5 355V437H278.5V355H364.5ZM276.5 355V437H188V355H276.5ZM186 355V437H98V355H186ZM1342.5 274V353H1257V274H1342.5ZM1255 274V353H1166.5V274H1255ZM1164.5 274V353H1077V274H1164.5ZM1075 274V353H989V274H1075ZM987 274V353H901.5V274H987ZM899.5 274V353H811V274H899.5ZM809 274V353H722V274H809ZM720 274V353H633V274H720ZM631 274V353H543V274H631ZM541 274V353H453.5V274H541ZM451.5 274V353H366.5V274H451.5ZM364.5 274V353H278.5V274H364.5ZM276.5 274V353H188V274H276.5ZM186 274V353H98V274H186ZM186 272H98V235.803C98 222.116 106.976 210.048 120.085 206.112L169.145 191.38L241.93 191.29L207.886 203.468C194.76 208.163 186 220.6 186 234.54V272ZM247.541 189.283L175.832 189.372L296.146 153.245L348.327 153.234L247.541 189.283ZM327.953 189.183L253.501 189.275L354.271 153.232L411.453 153.222L327.953 189.183ZM406.035 189.086L333.023 189.176L416.512 153.22L472.812 153.208L406.035 189.086ZM483.12 188.99L410.271 189.08L477.04 153.207L533.439 153.195L483.12 188.99ZM562.396 188.892L486.576 188.986L536.891 153.194L596.038 153.183L562.396 188.892ZM641.765 188.793L565.146 188.889L598.785 153.182L658.452 153.17L641.765 188.793ZM720 188.696L643.976 188.79L660.661 153.169L720 153.156V188.696ZM797.934 188.6L722 188.693V153.155L781.325 153.144L797.934 188.6ZM876.924 188.501L800.142 188.598L783.534 153.143L843.509 153.131L876.924 188.501ZM953.301 188.406L879.673 188.498L846.259 153.13L903.97 153.118L953.301 188.406ZM1029.86 188.312L956.731 188.402L907.406 153.117L964.425 153.105L1029.86 188.312ZM1107.62 188.216L1034.07 188.307L968.646 153.104L1025.88 153.093L1107.62 188.216ZM1186.13 188.118L1112.67 188.209L1030.94 153.091L1087.99 153.08L1186.13 188.118ZM1260.22 188.026L1192.06 188.11L1093.93 153.078L1143.85 153.068L1260.22 188.026ZM400.5 122.5H434.257L353.922 151.233L302.63 151.244L400.5 121.021V122.5ZM482.79 122.5L416.099 151.221L359.865 151.231L440.193 122.5H482.79ZM529.97 122.5L476.536 151.208L421.157 151.219L487.845 122.5H529.97ZM576.591 122.5L536.251 151.195L480.764 151.207L534.195 122.5H576.591ZM624.944 122.5L597.923 151.183L539.703 151.194L580.04 122.5H624.944ZM672.819 122.5L659.389 151.17L600.67 151.182L627.692 122.5H672.819ZM720 122.5V151.156L661.599 151.169L675.028 122.5H720ZM766.972 122.5L780.389 151.144L722 151.155V122.5H766.972ZM814.57 122.5L841.619 151.131L782.598 151.143L769.181 122.5H814.57ZM861.168 122.5L901.175 151.118L844.369 151.13L817.322 122.5H861.168ZM907.541 122.5L960.709 151.105L904.611 151.117L864.606 122.5H907.541ZM954.68 122.5L1021.22 151.094L964.93 151.104L911.763 122.5H954.68ZM1002.33 122.5L1082.39 151.081L1026.29 151.092L959.747 122.5H1002.33ZM1042.1 122.5L1137.2 151.069L1088.33 151.079L1008.28 122.5H1042.1ZM941.466 91.0195L1035.7 120.5H1002.68L920.102 91.0195H941.466ZM914.153 91.0195L996.73 120.5H955.093L886.483 91.0195H914.153ZM881.419 91.0195L950.025 120.5H908.045L853.251 91.0195H881.419ZM849.031 91.0195L903.823 120.5H861.811L820.6 91.0195H849.031ZM817.162 91.0195L858.372 120.5H815.433L787.582 91.0195H817.162ZM784.829 91.0195L812.681 120.5H768.244L754.435 91.0195H784.829ZM752.226 91.0195L766.035 120.5H722V91.0195H752.226ZM720 91.0195V120.5H675.965L689.774 91.0195H720ZM687.565 91.0195L673.756 120.5H629.576L657.351 91.0195H687.565ZM654.603 91.0195L626.828 120.5H582.852L624.295 91.0195H654.603ZM620.844 91.0195L579.402 120.5H537.918L592.788 91.0195H620.844ZM588.562 91.0195L533.692 120.5H492.488L560.943 91.0195H588.562ZM555.888 91.0195L487.435 120.5H445.785L528.209 91.0195H555.888ZM522.269 91.0195L439.849 120.5H402.188L497.652 91.0195H522.269ZM880.348 71.8984L935.073 89.0195H914.5L866.543 71.8984H880.348ZM860.593 71.8984L908.552 89.0195H881.829L841.985 71.8984H860.593ZM836.919 71.8984L876.765 89.0195H849.533L817.713 71.8984H836.919ZM813.491 71.8984L845.313 89.0195H817.804L793.87 71.8984H813.491ZM790.433 71.8984L814.366 89.0195H785.692L769.517 71.8984H790.433ZM766.766 71.8984L782.94 89.0195H753.498L745.478 71.8984H766.766ZM743.27 71.8984L751.289 89.0195H722V71.8984H743.27ZM720 71.8984V89.0195H690.711L698.73 71.8984H720ZM696.522 71.8984L688.502 89.0195H659.234L675.364 71.8984H696.522ZM672.616 71.8984L656.486 89.0195H627.106L651.175 71.8984H672.616ZM647.725 71.8984L623.655 89.0195H596.511L628.378 71.8984H647.725ZM624.151 71.8984L592.284 89.0195H565.588L605.343 71.8984H624.151ZM600.287 71.8984L560.531 89.0195H533.801L581.666 71.8984H600.287ZM575.729 71.8984L527.86 89.0195H504.129L559.571 71.8984H575.729ZM833.848 57.3516L873.955 69.8984H860.94L825.798 57.3516H833.848ZM819.849 57.3516L854.991 69.8984H837.331L808.131 57.3516H819.849ZM803.064 57.3516L832.265 69.8984H813.995L790.675 57.3516H803.064ZM786.453 57.3516L809.773 69.8984H791.074L773.535 57.3516H786.453ZM770.097 57.3516L787.637 69.8984H767.627L755.773 57.3516H770.097ZM753.022 57.3516L764.876 69.8984H744.541L738.663 57.3516H753.022ZM736.455 57.3516L742.333 69.8984H722V57.3516H736.455ZM720 57.3516V69.8984H699.667L705.545 57.3516H720ZM703.337 57.3516L697.459 69.8984H677.248L689.069 57.3516H703.337ZM686.321 57.3516L674.5 69.8984H653.986L671.623 57.3516H686.321ZM668.173 57.3516L650.536 69.8984H632.101L655.454 57.3516H668.173ZM651.228 57.3516L627.874 69.8984H609.987L639.12 57.3516H651.228ZM634.063 57.3516L604.931 69.8984H587.258L622.337 57.3516H634.063ZM616.399 57.3516L581.32 69.8984H566.048L606.675 57.3516H616.399ZM791.171 44L827.455 55.3516H820.196L788.397 44H791.171ZM782.451 44L814.247 55.3516H803.477L777.06 44H782.451ZM771.992 44L798.41 55.3516H786.957L765.86 44H771.992ZM761.638 44L782.735 55.3516H770.739L754.871 44H761.638ZM751.433 44L767.301 55.3516H753.884L743.16 44H751.433ZM740.408 44L751.133 55.3516H737.727L732.409 44H740.408ZM730.201 44L735.519 55.3516H722V44H730.201ZM720 44V55.3516H706.481L711.799 44H720ZM709.591 44L704.273 55.3516H690.953L701.647 44H709.591ZM698.9 44L688.205 55.3516H674.435L690.393 44H698.9ZM686.942 44L670.984 55.3516H659.177L680.304 44H686.942ZM676.078 44L654.95 55.3516H643.764L670.121 44H676.078ZM665.066 44L638.707 55.3516H627.929L659.665 44H665.066ZM653.728 44L621.991 55.3516H613.151L649.909 44H653.728ZM784.778 42H782.795L768.75 36.9854L784.778 42ZM776.849 42H772.405L750.666 32.6592L750.682 32.6582L776.849 42ZM767.338 42H762.143L744.836 32.6895L745.66 32.6855L767.338 42ZM757.92 42H752.075L739.101 32.7188L740.656 32.7109L757.92 42ZM748.637 42H741.271L732.534 32.7529L735.688 32.7363L748.637 42ZM738.519 42H731.473L727.154 32.7812L729.796 32.7676L738.519 42ZM729.265 42H722V32.8086L724.951 32.793L729.265 42ZM720 42H712.735L717.028 32.834L720 32.8193V42ZM710.527 42H703.531L712.142 32.8594L714.815 32.8457L710.527 42ZM700.784 42H693.204L706.008 32.8916L709.381 32.874L700.784 42ZM689.754 42H684.026L700.929 32.918L702.531 32.9102L689.754 42ZM679.801 42H674.766L695.791 32.9443L696.661 32.9404L679.801 42ZM669.711 42H665.257L690.493 32.9736L690.671 32.9727L669.711 42ZM659.319 42H656.386L677.852 35.3701L659.319 42ZM705.362 30.8955L704.687 30.8994L707.428 29.4268L705.362 30.8955ZM711.274 30.8643L708.84 30.877L716.186 25.6514L711.274 30.8643ZM715.754 30.8408L714.035 30.8496L717.445 27.2295L715.754 30.8408ZM720 30.8193L717.968 30.8291L720 26.4912V30.8193ZM724.017 30.7979L722 30.8086V26.4912L724.017 30.7979ZM727.916 30.7773L726.22 30.7861L724.542 27.2051L727.916 30.7773ZM732.913 30.751L730.654 30.7627L725.911 25.7432L732.913 30.751ZM736.974 30.7295L736.325 30.7334L734.337 29.3105L736.974 30.7295ZM1257 234.554C1257 220.606 1248.23 208.164 1235.1 203.475L1197.64 190.104L1266.85 190.019L1320.42 206.11C1333.53 210.048 1342.5 222.114 1342.5 235.8V272H1257V234.554ZM188 234.54C188 221.444 196.229 209.761 208.56 205.351L247.89 191.282L323.295 191.188L296.447 202.751C284.342 207.964 276.5 219.881 276.5 233.061V272H188V234.54ZM1166.5 233.079C1166.5 219.89 1158.65 207.967 1146.53 202.76L1117.31 190.203L1191.71 190.111L1234.42 205.358C1246.76 209.764 1255 221.451 1255 234.554V272H1166.5V233.079ZM278.5 233.061C278.5 220.68 285.867 209.485 297.238 204.588L328.366 191.182L402.304 191.091L381.882 202.063C371.178 207.814 364.5 218.983 364.5 231.134V272H278.5V233.061ZM366.5 231.134C366.5 219.719 372.773 209.228 382.828 203.825L406.539 191.085L480.304 190.993L465.371 201.617C456.669 207.808 451.5 217.827 451.5 228.507V272H366.5V231.134ZM1077 231.121C1077 218.977 1070.33 207.813 1059.64 202.06L1037.78 190.302L1112.26 190.21L1145.74 204.597C1157.12 209.488 1164.5 220.689 1164.5 233.079V272H1077V231.121ZM453.5 228.507C453.5 218.474 458.355 209.062 466.53 203.246L483.76 190.989L560.51 190.894L549.98 202.07C544.212 208.193 541 216.287 541 224.699V272H453.5V228.507ZM989 228.453C989 217.804 983.861 207.81 975.2 201.614L959.522 190.399L1033.57 190.308L1058.69 203.821C1068.73 209.226 1075 219.713 1075 231.121V272H989V228.453ZM901.5 224.726C901.5 216.298 898.276 208.19 892.488 202.063L881.56 190.496L956.092 190.403L974.036 203.24C982.172 209.06 987 218.449 987 228.453V272H901.5V224.726ZM543 224.699C543 216.797 546.018 209.194 551.437 203.442L563.261 190.891L640.828 190.794L634.116 205.125C632.064 209.506 631 214.285 631 219.123V272H543V224.699ZM633 219.123C633 214.578 633.999 210.089 635.927 205.974L643.038 190.792L720 190.696V272H633V219.123ZM811 219.123C811 214.285 809.936 209.506 807.884 205.125L801.078 190.596L878.811 190.499L891.034 203.437C896.471 209.191 899.5 216.809 899.5 224.726V272H811V219.123ZM722 190.693L798.87 190.599L806.073 205.974C808.001 210.089 809 214.578 809 219.123V272H722V190.693Z" stroke="url(#paint0_linear_83_19389)" stroke-width="2"/>
</g>
</g>
<defs>
<linearGradient id="paint0_linear_83_19389" x1="720.25" y1="21" x2="720" y2="527" gradientUnits="userSpaceOnUse">
<stop offset="0.119792" stop-color="white" stop-opacity="0"/>
<stop offset="0.276042" stop-color="white" stop-opacity="0.06"/>
<stop offset="0.552083" stop-color="white" stop-opacity="0.03"/>
<stop offset="0.770833" stop-color="white" stop-opacity="0"/>
</linearGradient>
<clipPath id="clip0_83_19389">
<rect width="1440" height="510" fill="white"/>
</clipPath>
<clipPath id="clip1_83_19389">
<rect width="1246.5" height="589" fill="white" transform="translate(97 21)"/>
</clipPath>
</defs>
</svg>
