<svg xmlns="http://www.w3.org/2000/svg" aria-hidden="true" viewBox="0 0 410 404"><path fill="url(#a)" d="M399.641 59.525 215.643 388.545c-3.795 6.787-13.56 6.826-17.408.069L10.582 59.305c-4.197-7.36 2.111-16.378 10.483-14.894l184.385 32.937a8.013 8.013 0 0 0 2.823-.005l180.514-32.881c8.338-1.519 14.71 7.441 10.554 14.643Z"/><path fill="url(#b)" d="M292.965 1.574 156.801 28.255a4.483 4.483 0 0 0-3.609 4.139l-8.382 141.491a4.484 4.484 0 0 0 5.207 4.687l37.926-8.755c3.263-.753 6.211 2.124 5.5 5.398l-11.271 55.214c-.74 3.407 2.488 6.328 5.811 5.107l23.43-8.493c3.327-1.207 6.557 1.711 5.811 5.107l-17.911 86.694c-1.088 5.265 5.917 8.13 8.69 3.539l1.857-3.078 110.998-221.408c1.703-3.396-1.233-7.276-4.961-6.56l-39.041 7.533c-3.354.648-6.207-2.473-5.244-5.745l25.448-88.272c.964-3.276-1.894-6.402-5.252-5.743Z"/><defs><linearGradient id="a" x1="6.001" x2="235" y1="32.999" y2="344" gradientUnits="userSpaceOnUse"><stop stop-color="#41D1FF"/><stop offset="1" stop-color="#BD34FE"/></linearGradient><linearGradient id="b" x1="194.651" x2="236.076" y1="8.818" y2="292.989" gradientUnits="userSpaceOnUse"><stop stop-color="#FFEA83"/><stop offset=".083" stop-color="#FFDD35"/><stop offset="1" stop-color="#FFA800"/></linearGradient></defs></svg>
